<svg xmlns="http://www.w3.org/2000/svg" version="1.1" xmlns:xlink="http://www.w3.org/1999/xlink" xmlns:svgjs="http://svgjs.dev/svgjs" viewBox="0 0 12.922549844256125 13.027229826368888"><g transform="matrix(0.8571428571428572,0,0,0.8571428571428572,3.4822373813270593,5.025052575637893)"><rect width="15.180988133744908" height="15.180988133744908" x="-4.114950269271284" y="-5.853838006401478" fill="#ffffff"></rect><g><path d=" M -1.081084725317715 2.9177180417057893 L -1.0967953577856016 2.920747237549407 L -1.1411259958848607 2.8651343386345642 L -1.7946418041365968 2.7294063445984036 L -1.8050546648490315 2.675401045490043 L -1.2512295424405526 2.3099386893037552 L -1.2285653769829554 2.2373347251963414 L -1.2128547445150688 2.234305529352724 L -1.1628730130953828 2.493530965072852 L -1.1785836455632694 2.4965601609164696 L -1.2296112312266667 2.416778048251006 L -1.3923458157136603 2.523518176655677 L -1.3467185533191743 2.760159578203218 L -1.1551713174897034 2.7975715608570293 L -1.1376895016744355 2.708653699232938 L -1.1219788692065489 2.7056245033893207 L -1.081084725317715 2.9177180417057893 M -1.4050783214527343 2.7479884047430656 L -1.4421859705370466 2.555533157011455 L -1.6602735475424317 2.6973880432717463 L -1.4050783214527343 2.7479884047430656 M -1.2161427177145179 1.920847735637579 Q -1.2130425958447033 1.9837714135688023 -1.2228382896854644 2.028808002939869 Q -1.2326339835262252 2.0738445923109357 -1.2532933305823657 2.121919444148606 L -1.4176013566133765 2.140026696336409 L -1.418388689151742 2.1240460797189558 L -1.312128777478676 2.0657465842560256 Q -1.2848861997872163 2.0293619451795584 -1.273575030429562 1.9947634271800478 Q -1.262263861071908 1.960164909180537 -1.2639369427159348 1.9262060988684484 Q -1.26679102316751 1.8682763636301793 -1.2984031568274381 1.8362931960968216 Q -1.3300152904873663 1.8043100285634637 -1.3819522944940903 1.8068688593131519 Q -1.4229026245763148 1.8088863989427137 -1.4464625905243054 1.8285695898560166 Q -1.4700225564722957 1.8482527807693194 -1.4877028306216709 1.8856681239590183 Q -1.5053831047710458 1.9230834671487171 -1.528743567741072 1.977298675068876 Q -1.5592085899141632 2.0498857429528528 -1.5947932453327016 2.089685018056099 Q -1.63037790075124 2.1294842931593454 -1.6982955213754174 2.1328304564473988 Q -1.734251908764688 2.1346019546587214 -1.7685724697713185 2.1187716327355846 Q -1.8028930307779492 2.1029413108124477 -1.8308371755600419 2.0742816741713903 Q -1.8587813203421346 2.045622037530333 -1.8765826434545585 2.0094541941408375 Q -1.8943839665669824 1.9732863507513418 -1.8963522979128964 1.933334809207708 Q -1.8986650872443451 1.8863917478939385 -1.8896959529494075 1.8449001266915874 Q -1.8807268186544701 1.8034085054892366 -1.8617205906899763 1.7624235899889982 L -1.70240650735192 1.7445623792194338 L -1.7016191748135543 1.7605429958368874 L -1.8059307176930863 1.817745286193931 Q -1.8293257660811264 1.8509367265200343 -1.8390330246307816 1.8774465196435224 Q -1.848740283180437 1.9039563127670107 -1.8471164098200579 1.9369163345405085 Q -1.8450004536232005 1.9798642416999148 -1.8146331499201023 2.0069026748239662 Q -1.784265846217004 2.0339411079480176 -1.740319150519007 2.0317759434675122 Q -1.6913785121280558 2.029364737568768 -1.6649132856987714 1.9975238551996073 Q -1.6384480592694872 1.965682972830447 -1.6098329893226337 1.8961906871295384 Q -1.5838206187223702 1.8348363345883003 -1.5592964496538029 1.794080167797294 Q -1.5347722805852355 1.7533240010062876 -1.5027472162010467 1.7327231454126826 Q -1.470722151816858 1.7121222898190775 -1.419783936348725 1.7096126673530374 Q -1.3728408750349554 1.7072998780215884 -1.3359003219727281 1.7255041505820827 Q -1.2989597689105008 1.7437084231425772 -1.2728655763546461 1.7754628419667027 Q -1.2467713837987915 1.8072172607908283 -1.2323920081459638 1.8450555159809778 Q -1.218012632493136 1.882893771171127 -1.2161427177145179 1.920847735637579 M -1.2111368804065905 1.365363011438079 Q -1.2154912066852577 1.4282123538583376 -1.2305381849145243 1.4717765415148059 Q -1.2455851631437909 1.515340729171274 -1.2717786268067006 1.5606386591608423 L -1.437075210332563 1.5592105573865962 L -1.4359693496903616 1.5432488196290701 L -1.3235668478399245 1.497909238932261 Q -1.2922171279995935 1.4649973100016627 -1.276898262206926 1.4319771290387084 Q -1.2615793964142588 1.3989569480757542 -1.2592294425495811 1.3650382553410116 Q -1.2552206977216018 1.3071769559699797 -1.2828335602973542 1.2716835788360326 Q -1.3104464228731065 1.2361902017020854 -1.362322070585066 1.2325961546149313 Q -1.4032240235887263 1.2297623867192908 -1.4289440858974831 1.2465247968930595 Q -1.45466414820624 1.2632872070668284 -1.4766402606882463 1.2983521536685019 Q -1.4986163731702524 1.3334171002701751 -1.5282173604035236 1.384493333048403 Q -1.5670433097380343 1.452973590482747 -1.6070800516324635 1.4882908567767121 Q -1.647116793526893 1.5236081230706773 -1.7149541789963783 1.518908215341322 Q -1.750868088950812 1.5164200288963694 -1.7830784423032244 1.4966464825044665 Q -1.8152887956556367 1.4768729361125637 -1.8396519351124119 1.4451130961285568 Q -1.864015074569187 1.4133532561445499 -1.8774195095916226 1.37533587693807 Q -1.8908239446140582 1.33731849773159 -1.8880592930085554 1.2974141533377748 Q -1.8848108273720894 1.2505265486750423 -1.8710033647681494 1.2103848748628954 Q -1.85719590216421 1.1702432010507484 -1.8334814697519541 1.1317902987498225 L -1.6731729292753186 1.1328728190733808 L -1.6742787899175198 1.1488345568309069 L -1.7846169582581286 1.1933147614981456 Q -1.8117688947886654 1.2235103297597583 -1.8245396130405416 1.2486878744242245 Q -1.8373103312924175 1.2738654190886909 -1.8395911688669575 1.3067865032135884 Q -1.8425631693428732 1.3496836734369393 -1.8156023339262783 1.3801198912315222 Q -1.7886414985096835 1.4105561090261052 -1.744746719676487 1.4135972257921583 Q -1.6958638977940637 1.4169839240088995 -1.6658228098691972 1.3884921175324678 Q -1.6357817219443307 1.360000311056036 -1.5991583386999235 1.294374646870953 Q -1.5660807116061533 1.2365225026942204 -1.5369139899848165 1.1989485442939738 Q -1.50774726836348 1.1613745858937272 -1.4735129747259688 1.1447008598812052 Q -1.4392786810884575 1.1280271338686831 -1.3884006419863435 1.1315520646656994 Q -1.3415130373236108 1.1348005303021655 -1.3069814531719288 1.1572408889440258 Q -1.272449869020247 1.1796812475858858 -1.2502892956535754 1.2142956808191538 Q -1.2281287222869035 1.2489101140524217 -1.2183195918341332 1.2881819991581882 Q -1.2085104613813626 1.3274538842639547 -1.2111368804065905 1.365363011438079 M -1.191741414240499 1.0143001569375454 L -1.2074221294339182 1.0111197212719696 L -1.2305229618604894 0.9237850114413445 L -1.7675874572351034 0.8148550898953739 L -1.8228902007756291 0.8862876213981201 L -1.8385709159690486 0.8831071857325444 L -1.7387847469616085 0.3911247465390112 L -1.57021705863235 0.42531442994395086 L -1.5733974942979259 0.44099514513737026 L -1.7009832440412067 0.4814411148061135 L -1.7476958928793511 0.7117516192094608 L -1.5154252990768264 0.758861822505802 L -1.4824282790464776 0.5961744023740759 L -1.5546143951279068 0.5294948354507788 L -1.5514339594623308 0.5138141202573594 L -1.3348440808532256 0.5577438878881249 L -1.3380245165188014 0.5734246030815442 L -1.4285258205690985 0.6071071499744927 L -1.4615228405994474 0.7697945701062188 L -1.2086713081055596 0.8210790952136282 L -1.1565916740817563 0.5643073839213858 L -1.272838277306966 0.47338583950753066 L -1.2696578416413904 0.45770512431411126 L -1.0863894828183012 0.49487646615552816 L -1.191741414240499 1.0143001569375454 M -1.0053947149593154 0.23458744833713058 L -1.0204474839225852 0.2291639673019998 L -1.0238436822964965 0.12058466063353257 L -1.5403418173486898 -0.06550853238439197 L -1.593898692570606 0.08313756112789678 L -1.4759048825731407 0.2011183256714529 L -1.4813283636082715 0.21617109463472267 L -1.6751327640103693 0.14634377630741396 L -1.4737860305811394 -0.4124902714539753 L -1.2799816301790414 -0.3426629531266666 L -1.2854051112141722 -0.3276101841633968 L -1.4511933478337276 -0.3129384222181384 L -1.5050891906203396 -0.16335153064564523 L -0.9885910555681465 0.02274166237227926 L -0.9163844415610135 -0.05966103718073845 L -0.9013316725977437 -0.05423755614560766 L -1.0053947149593154 0.23458744833713058 M -0.7018767302816717 -0.5120431053285779 L -0.7154465865653781 -0.5205200741523709 L -0.7100563504068371 -0.5914351314685372 L -1.0963345055973521 -1.1357642477415992 L -1.0671949252655635 -1.1824106287168394 L -0.41272792631835453 -1.0730582291591064 L -0.34669844273038236 -1.110808822493592 L -0.33312858644667614 -1.1023318536697988 L -0.47299857203926066 -0.8784292249886461 L -0.48656842832296693 -0.8869061938124392 L -0.4696291604127128 -0.9800837726748706 L -0.6614960244144505 -1.0126890866304006 L -0.7891803673228327 -0.8082931263570754 L -0.6743475383719615 -0.6504849472435074 L -0.6010075074441724 -0.703713133982405 L -0.5874376511604662 -0.695236165158612 L -0.7018767302816717 -0.5120431053285779 M -0.8236411056138704 -0.8569393750966916 L -0.7197982375224061 -1.023170114572093 L -0.9761156318414634 -1.0677390877427744 L -0.8236411056138704 -0.8569393750966916 M -0.2706550902603462 -1.1848316439152764 L -0.2826150316727691 -1.1954598987772662 L -0.25870934496500253 -1.2825777393326319 L -0.6668423456639343 -1.6452669364980368 L -0.7513784661814937 -1.6133663984486455 L -0.7633384075939167 -1.6239946533106355 L -0.659048656760641 -1.7413515784200353 L -0.05256403067355886 -1.7147734234800813 L -0.36352250739655445 -1.9911080498918183 L -0.4610942552633951 -1.9400222982754463 L -0.473054196675818 -1.950650553137436 L -0.304994916670603 -2.139767126721373 L -0.2930349752581801 -2.129138871859383 L -0.31702389237534867 -2.0434327935711685 L 0.13894887397327466 -1.6382305769578043 L 0.1103854390316768 -1.6060882344119176 L -0.5493315785064675 -1.634486416934322 L -0.21146323360552038 -1.3342382170831077 L -0.11389148573867969 -1.3853239686994798 L -0.10193154432625678 -1.37469571383749 L -0.2706550902603462 -1.1848316439152764 M 0.2798413729756211 -1.7858222973717197 L 0.26986187417651564 -1.7983286798910036 L 0.3082266886826272 -1.8801158488596852 L -0.03357114518673526 -2.308459450145162 L -0.12183345368837417 -2.2892041937729006 L -0.13181295248747965 -2.3017105762921846 L 0.10580831537891633 -2.491321053475189 Q 0.1933529930139043 -2.5611775450689267 0.27942828502568867 -2.5799670129987557 Q 0.365503577037473 -2.598756480928584 0.44035487659306416 -2.571488680231807 Q 0.5152061761486553 -2.54422087953503 0.5688459821938472 -2.4769990734938783 Q 0.6174960388394863 -2.4160304587123687 0.6375569508845047 -2.3476012265968316 Q 0.657617862929523 -2.2791719944812945 0.6496463873152598 -2.2114024911886543 Q 0.6416749117009966 -2.1436329878960136 0.6073173124861682 -2.081674894185884 Q 0.5729597132713398 -2.019716800475754 0.5119910984898304 -1.971066743830115 L 0.2798413729756211 -1.7858222973717197 M 0.1190083219995497 -2.4314899593416595 L 0.047878271421121915 -2.374731559921747 L 0.39092354264037255 -1.9448246608213595 L 0.47377832683062904 -2.010938840365433 Q 0.536310239427049 -2.060836334360961 0.5599696515413712 -2.1225735372325247 Q 0.5836290636556933 -2.184310740104089 0.5695014812777445 -2.2517174268358535 Q 0.5553738988997955 -2.3191241135676184 0.5029815302044918 -2.3847826217938595 Q 0.45121288018413214 -2.4496594811126453 0.38760852241528604 -2.4788653995678596 Q 0.32400416464643994 -2.508071318023074 0.25550797079729815 -2.4969124010424344 Q 0.1870117769481564 -2.4857534840617954 0.1190083219995497 -2.4314899593416595 M 1.140130399936801 -2.4098284527617295 L 1.1330474299254811 -2.424175282927963 L 1.1879708326137373 -2.4958998940258534 L 0.9453791097260287 -2.9872788272193445 L 0.8550408569811727 -2.9872883669526202 L 0.8479578869698527 -3.0016351971188535 L 1.0972340611081566 -3.124701801065538 Q 1.1913851340740627 -3.1711837917648253 1.2648909103584085 -3.1589608276056818 Q 1.3383966866427544 -3.1467378634465386 1.3720407941965242 -3.0785904201569303 Q 1.396831189236144 -3.028376514575114 1.3817929494967622 -2.972997354726477 Q 1.3667547097573807 -2.91761819487784 1.3213425122544988 -2.8695481177200146 L 1.6143237331655218 -2.7030428499550383 L 1.6907804526378012 -2.699525742118026 L 1.697863422649121 -2.685178911951793 L 1.5534984441013984 -2.6139065262128858 L 1.2467600518915194 -2.8015006592354794 L 1.172335870404184 -2.764757752301757 L 1.281679219953936 -2.54327856161053 L 1.367080097012162 -2.5397162312376196 L 1.374163067023482 -2.5253694010713863 L 1.140130399936801 -2.4098284527617295 M 1.0919914333042127 -3.0607759467207636 L 1.0390874970662274 -3.034657494804021 L 1.1488735322416868 -2.8122816272274047 L 1.2071575297920094 -2.841056192898392 Q 1.2627514966861635 -2.868502701692257 1.2833515708318255 -2.9182634989647407 Q 1.3039516449774875 -2.9680242962372247 1.279603935563575 -3.0173415249336513 Q 1.2543708548982477 -3.0684521074008577 1.2045648350898657 -3.080108023960573 Q 1.1547588152814834 -3.091763940520288 1.0919914333042127 -3.0607759467207636 M 1.7666089885963765 -2.70730643422588 L 1.7616793125567884 -2.7225280732356816 L 1.8264146699449386 -2.7855386557106 L 1.6575732655890483 -3.3068797917963018 L 1.5681895280029579 -3.3199774043703916 L 1.56325985196337 -3.335199043380193 L 2.040838775895893 -3.4898676291222674 L 2.0938327933214644 -3.326235009766901 L 2.0786111543116625 -3.321305333727313 L 1.9807249897948564 -3.4125867600756603 L 1.7571571668383965 -3.340182143244211 L 1.8301779931747943 -3.114711615411526 L 1.9881024979014852 -3.165857004322252 L 2.0107406730373905 -3.261483951499897 L 2.025962312047192 -3.266413627539485 L 2.094053462344002 -3.056164738716601 L 2.0788318233342 -3.051235062677013 L 2.005048259287569 -3.113532620226059 L 1.8471237545608783 -3.0623872313153333 L 1.9266147806992353 -2.8169383022822836 L 2.1758691194847355 -2.8976617474305377 L 2.197988553073565 -3.043575182924701 L 2.2132101920833667 -3.048504858964289 L 2.270825780796052 -2.8706019530372338 L 1.7666089885963765 -2.70730643422588 M 2.6171465246669388 -2.930629532994275 Q 2.5551864119911203 -2.919230215593662 2.5092496370247512 -2.9229802430187815 Q 2.463312862058382 -2.926730270443901 2.4129269954555634 -2.940846376375885 L 2.3732367018387484 -3.101313446494994 L 2.388972603470702 -3.1042085112316578 L 2.4608204061450705 -3.0065975833041705 Q 2.500489995800172 -2.9844092157077062 2.536281026866613 -2.977775808197154 Q 2.5720720579330543 -2.9711424006866016 2.6055108489009564 -2.9772944132520123 Q 2.662553492316789 -2.987789022922418 2.6900722899774476 -3.0233553802747206 Q 2.7175910876381066 -3.0589217376270237 2.7081821272439495 -3.1100634179308737 Q 2.7007635238562493 -3.1503866658627553 2.678135819716286 -3.171134846634917 Q 2.6555081155763234 -3.191883027407079 2.61608222983062 -3.2044567910905086 Q 2.5766563440849164 -3.2170305547739386 2.519826689731991 -3.233011492985665 Q 2.443846613674786 -3.253603434184622 2.39968853932234 -3.2836086748849374 Q 2.355530464969894 -3.313613915585253 2.3432264398390736 -3.3804914975210565 Q 2.33671254418158 -3.4158972761929527 2.3478621447991403 -3.4520107972905816 Q 2.3590117454167 -3.488124318388211 2.383721610006514 -3.519615151847379 Q 2.4084314745963287 -3.5511059853065468 2.441925682383558 -3.5735367241420355 Q 2.4754198901707873 -3.595967462977524 2.514759644250672 -3.603205124819183 Q 2.5609838552945363 -3.6117093774831326 2.6032974602328744 -3.608309548498865 Q 2.645611065171212 -3.6049097195145974 2.6887505917179677 -3.5914940104643174 L 2.7275361776045757 -3.435944409605194 L 2.711800275972622 -3.43304934486853 L 2.6412978502423337 -3.5288742266380644 Q 2.605302508327389 -3.547671443464665 2.577741311169008 -3.5537853956395544 Q 2.550180114010627 -3.5598993478144445 2.517724816894722 -3.5539282767950757 Q 2.475434581258846 -3.546147790315292 2.4526523113121312 -3.5124696345451936 Q 2.429870041365416 -3.4787914787750953 2.4378314693912415 -3.4355177492872224 Q 2.446697605147274 -3.3873265505393637 2.4817605309223474 -3.3653074398377094 Q 2.516823456697421 -3.3432883291360556 2.5894911681065516 -3.3241205510029683 Q 2.6537481040615813 -3.306455722057541 2.6973910621855666 -3.287540326048256 Q 2.741034020309552 -3.2686249300389707 2.7656914745168657 -3.239607522297854 Q 2.7903489287241796 -3.2105901145567377 2.7995769475722954 -3.160431928104885 Q 2.8080812002362445 -3.1142077170610207 2.7949252188537956 -3.0751831074682947 Q 2.7817692374713467 -3.036158497875569 2.753747008233458 -3.006091827482271 Q 2.72572477899557 -2.976025157088973 2.690122035019199 -2.9567652344164124 Q 2.654519291042829 -2.9375053117438514 2.6171465246669388 -2.930629532994275 M 3.305927908518375 -3.0062505621725584 Q 3.2339754403393552 -3.0036347787435975 3.1715896171386864 -3.0268836295447628 Q 3.109203793938017 -3.0501324803459275 3.062080801602418 -3.093949413069923 Q 3.0149578092668197 -3.137766345793918 2.9877218331963884 -3.198817157479684 Q 2.9604858571259567 -3.2598679691654504 2.9577974130461913 -3.333819117016109 Q 2.955108968966426 -3.407770264866768 2.97783998468698 -3.4706375928226456 Q 3.000571000407534 -3.5335049207785234 3.0443879331315293 -3.5806279131141223 Q 3.0882048658555243 -3.627750905449721 3.1487378424606796 -3.655468386275361 Q 3.209270819065835 -3.683185867101001 3.281223287244854 -3.685801650529962 Q 3.353175755423873 -3.6884174339589233 3.4155615786245423 -3.665168583157758 Q 3.4779474018252117 -3.641919732356593 3.52507039416081 -3.598102799632598 Q 3.572193386496409 -3.554285866908603 3.5999290324847504 -3.4932532203855375 Q 3.6276646784730913 -3.4322205738624727 3.630353122552857 -3.358269426011814 Q 3.6330415666326226 -3.2843182781611553 3.6098108809941585 -3.2214327850425764 Q 3.586580195355695 -3.1585472919239974 3.5427632626316994 -3.1114242995883985 Q 3.4989463299077044 -3.0643013072528 3.438413353302549 -3.03658382642716 Q 3.377880376697394 -3.0088663456015197 3.305927908518375 -3.0062505621725584 M 3.324098188964657 -3.056944160471589 Q 3.3850579189496597 -3.059160310321125 3.4298649809844948 -3.092810380035859 Q 3.47467204301933 -3.1264604497505926 3.4985477198773127 -3.185366748688594 Q 3.522423396735295 -3.2442730476265953 3.5195533010285187 -3.3232208946563526 Q 3.516029259464502 -3.4201568587308646 3.481416436126609 -3.491446426414922 Q 3.446803612788716 -3.5627359940989796 3.3903867088025423 -3.600711419634645 Q 3.333969804816369 -3.6386868451703105 3.267014035816448 -3.6362527133683606 Q 3.206054305831446 -3.634036563518824 3.1602297387980895 -3.600849833396598 Q 3.1144051717647336 -3.567663103274372 3.090029824988841 -3.5087386391736697 Q 3.0656544782129487 -3.449814175072967 3.068524573919725 -3.37086632804321 Q 3.0720486154837423 -3.273930363968698 3.107179273902246 -3.2021592915294317 Q 3.14230993232075 -3.1303882190901655 3.199226506224833 -3.092430958717201 Q 3.2561430801289166 -3.054473698344237 3.324098188964657 -3.056944160471589 M 4.1200826034391085 -2.9643234213640515 Q 4.043816461982655 -2.974928875967428 3.987254359385914 -3.0110637420919306 Q 3.9306922567891727 -3.0471986082164326 3.9047850541392375 -3.1113785649853116 Q 3.878877851489302 -3.1755585217541906 3.892237969626023 -3.2716340506019304 L 3.939204982869549 -3.6093841056233655 L 3.8644862910015276 -3.660159267715984 L 3.8666900218282034 -3.6760067776290137 L 4.131145343501879 -3.6392320194588628 L 4.128941612675203 -3.6233845095458337 L 4.043204266673803 -3.5949221220733065 L 3.997752318373617 -3.2680672301170786 Q 3.986320464710237 -3.1858582724432396 4.005392609250548 -3.134239445426022 Q 4.024464753790861 -3.082620618408804 4.065153009341679 -3.055760501874595 Q 4.105841264892497 -3.028900385340386 4.160317080218535 -3.0213250606236883 Q 4.203897732479366 -3.01526480085033 4.243588397606372 -3.028423490062249 Q 4.283279062733378 -3.041582179274168 4.311280550380265 -3.079587661636075 Q 4.339282038027153 -3.117593143997982 4.348510160863857 -3.1839545917587913 L 4.39905823670073 -3.5474568503888992 L 4.3072260991967815 -3.598592537745732 L 4.309429830023458 -3.6144400476587615 L 4.556056703044974 -3.5801444866686207 L 4.553852972218299 -3.5642969767555917 L 4.468253359393566 -3.536825058652629 L 4.421148612973373 -3.1980845342616293 Q 4.407788494836652 -3.1020090054138896 4.365353310986649 -3.0473326378350496 Q 4.322918127136646 -2.992656270256209 4.259633436016104 -2.973187118508442 Q 4.196348744895562 -2.9537179667606748 4.1200826034391085 -2.9643234213640515 M 4.597838181508199 -2.8910795252761323 L 4.60256870729345 -2.906364227621781 L 4.691773827381423 -2.92062769669807 L 4.853794335526267 -3.444128752036535 L 4.788241844364548 -3.5062887946884893 L 4.7929723701497995 -3.521573497034138 L 5.058544073405444 -3.4393806115154035 Q 5.158849932548763 -3.408336536049694 5.203784096314596 -3.3488939509219824 Q 5.2487182600804285 -3.28945136579427 5.226248262600487 -3.216849029652439 Q 5.209691422352109 -3.163352571442669 5.160676966233332 -3.133509932628709 Q 5.111662510114554 -3.1036672938147496 5.045634157708868 -3.1000263216107267 L 5.143696160786529 -2.7776199886202027 L 5.19676151098054 -2.722465037720152 L 5.19203098519529 -2.7071803353745034 L 5.0382286678422 -2.7547812510885907 L 4.9446922296141835 -3.101956905078925 L 4.8654028361961315 -3.1264965075899145 L 4.792375344386321 -2.890538915128964 L 4.851900414306844 -2.829197525749876 L 4.847169888521592 -2.813912823404227 L 4.597838181508199 -2.8910795252761323 M 5.010758192430743 -3.3965961566343164 L 4.954395852531165 -3.414039970467429 L 4.881072702859775 -3.1771270841098755 L 4.943166806138973 -3.1579093231072934 Q 5.002395027728361 -3.1395785356894463 5.05158028462681 -3.161517325624938 Q 5.100765541525258 -3.1834561155604293 5.117026723912058 -3.2359972798735965 Q 5.133879222022014 -3.2904490319799695 5.105753993607485 -3.3331745691519066 Q 5.077628765192956 -3.3759001063238436 5.010758192430743 -3.3965961566343164 M 5.558521499248136 -2.5204570517809604 Q 5.465870907221953 -2.565455582836961 5.416755799478151 -2.636001356568026 Q 5.367640691734348 -2.706547130299091 5.362652521773324 -2.7901241496312017 Q 5.3576643518123 -2.873701168963312 5.398294093445388 -2.9573565578801566 Q 5.429749377290359 -3.022122020267391 5.482896198303147 -3.0674587097829997 Q 5.536043019315935 -3.112795399298608 5.601513701510788 -3.136582786144172 Q 5.666984383705641 -3.1603701729897367 5.736105213149773 -3.1584831284870005 Q 5.805226042593904 -3.1565960839842644 5.869091984670205 -3.125577679081584 Q 5.91496752052783 -3.1032968530247294 5.943611018285619 -3.0821592080234654 Q 5.972254516043409 -3.0610215630222015 5.9924040957000315 -3.0395624288443863 Q 6.012553675356653 -3.0181032946665716 6.031623938870721 -2.993277399929343 L 5.959256609008479 -2.8305415109293763 L 5.94306524341167 -2.8384053318906193 L 5.937792604455102 -2.9854876193301125 Q 5.9176940084983425 -3.021929990830427 5.897762868312867 -3.0438388851637086 Q 5.877831728127391 -3.0657477794969905 5.847248037555641 -3.0806016635348934 Q 5.785181136101208 -3.110746310552991 5.719979877077363 -3.1023919211853936 Q 5.654778618053518 -3.0940375318177957 5.598701915423607 -3.0506796787556736 Q 5.542625212793697 -3.0073218256935514 5.5063642605835215 -2.932661639886045 Q 5.465734518950433 -2.8490062509692002 5.464117438771545 -2.775863342552218 Q 5.462500358592657 -2.702720434135236 5.493984651781021 -2.6485195182534067 Q 5.5254689449693855 -2.5943186023715774 5.582138724558216 -2.5667952290072273 Q 5.628913780726774 -2.5440775240080815 5.666963056957002 -2.541161605909815 Q 5.70501233318723 -2.5382456878115485 5.738499601796911 -2.543103963335135 L 5.847697904166099 -2.6145793490262075 L 5.862989749451973 -2.607152407007256 L 5.7818579960118734 -2.4675721842544074 Q 5.732667765600378 -2.467005410874679 5.681575444861609 -2.476256073636169 Q 5.630483124122841 -2.485506736397659 5.558521499248136 -2.5204570517809604 M 5.915710928502108 -2.344054874130964 L 5.924775532410414 -2.357239446781814 L 6.014183941226104 -2.344311321123143 L 6.32464662508556 -2.7958829344147484 L 6.280561235811396 -2.8747339233276685 L 6.289625839719702 -2.8879184959785187 L 6.703291806640114 -2.60351654835544 L 6.605847314625832 -2.461782392358805 L 6.592662741974983 -2.47084699626711 L 6.605385331660387 -2.604084137153939 L 6.41173692085103 -2.7372205070571733 L 6.277467475459259 -2.5419240246664607 L 6.414257416711825 -2.4478787591177933 L 6.503872412555012 -2.4882043405770315 L 6.517056985205862 -2.4791397366687264 L 6.391852143722395 -2.2970278269288635 L 6.378667571071546 -2.3060924308371686 L 6.383097840777026 -2.402556790630497 L 6.246307899524459 -2.4966020561791646 L 6.1001411615030365 -2.284000822184211 L 6.3160385386607025 -2.1355679331857123 L 6.445207883088976 -2.2069491664334637 L 6.458392455739826 -2.1978845625251586 L 6.352449897561508 -2.0437898696683514 L 5.915710928502108 -2.344054874130964 M 6.896404780375569 -1.5266762664640736 Q 6.825312727662007 -1.6012076024307142 6.803938088410375 -1.684466985066322 Q 6.782563449158742 -1.76772636770193 6.807087850753973 -1.8477798106409806 Q 6.8316122523492036 -1.9278332535800313 6.898907536280248 -1.992023165253441 Q 6.951007110936541 -2.041718580742532 7.01664383887678 -2.0656313376998328 Q 7.08228056681702 -2.0895440946571338 7.151936211039736 -2.0889599474852503 Q 7.221591855262452 -2.0883758003133663 7.2856980921168555 -2.0624597744535427 Q 7.34980432897126 -2.0365437485937186 7.398809530356336 -1.9851677791409859 Q 7.434010449661109 -1.9482639137594453 7.4534645094785015 -1.9184513399587604 Q 7.472918569295895 -1.888638766158075 7.4843016025189355 -1.8614923749680266 Q 7.495684635741976 -1.8343459837779779 7.504880157804566 -1.8044220406220963 L 7.380219716195045 -1.6772222988860408 L 7.367795862322772 -1.690247192550114 L 7.414239765608476 -1.8299037851176978 Q 7.408139010957393 -1.8710715005350886 7.397117780336131 -1.8985629987771449 Q 7.38609654971487 -1.926054497019201 7.362629270178355 -1.950657073940228 Q 7.3150044970013095 -2.0005858329858417 7.250992933952329 -2.0155364114370746 Q 7.186981370903349 -2.030486989888308 7.119290696200837 -2.0094519581954735 Q 7.051600021498324 -1.9884169265026392 6.991540789602875 -1.9311291558693813 Q 6.924245505671831 -1.8669392441959716 6.897177289807578 -1.7989700475703954 Q 6.870109073943326 -1.7310008509448191 6.880674025227528 -1.6692158867191886 Q 6.89123897651173 -1.6074309224935581 6.934722465064684 -1.5618437946693022 Q 6.970613598473472 -1.5242163240842022 7.005246672015845 -1.5081913368140478 Q 7.039879745558218 -1.4921663495438937 7.072954239338275 -1.4850194718205123 L 7.200242367105967 -1.5138419028317156 L 7.211976006874225 -1.5015406143712022 L 7.087192999852944 -1.3990994060674773 Q 7.040904264797966 -1.415753324735767 6.996263086747374 -1.4422705874575357 Q 6.951621908696781 -1.4687878501793044 6.896404780375569 -1.5266762664640736 M 7.35653785754529 -0.9514922410074247 Q 7.316103131614205 -1.0110660014970736 7.302664176721487 -1.0762725540159077 Q 7.28922522182877 -1.141479106534742 7.301320028390084 -1.2046789139256224 Q 7.3134148349513985 -1.267878721316503 7.35067462664697 -1.323382846593843 Q 7.387934418342541 -1.3788869718711831 7.449163005512457 -1.4204448846336872 Q 7.510391592682374 -1.4620027973961913 7.575731055163421 -1.476136255666831 Q 7.641070517644467 -1.4902697139374705 7.704270325035347 -1.4781749073761559 Q 7.767470132426228 -1.4660801008148412 7.82310716766578 -1.4295148124971924 Q 7.878744202905333 -1.392949524179543 7.919178928836418 -1.3333757636898944 Q 7.9596136547675025 -1.2738020032002455 7.97305260966022 -1.2085954506814112 Q 7.986491564552939 -1.143388898162577 7.974396757991624 -1.0801890907716967 Q 7.962301951430309 -1.016989283380816 7.925322956442593 -0.961071451433409 Q 7.888343961454877 -0.9051536194860019 7.8271153742849595 -0.8635957067234978 Q 7.765886787115043 -0.8220377939609937 7.700266527926142 -0.8083180423604212 Q 7.6346462687372405 -0.7945982907598486 7.57144646134636 -0.8066930973211631 Q 7.50824665395548 -0.8187879038824777 7.452609618715927 -0.8553531922001268 Q 7.396972583476375 -0.8919184805177759 7.35653785754529 -0.9514922410074247 M 7.409140392866181 -0.9630236449902202 Q 7.443397591224461 -0.9125514312420455 7.495708115231388 -0.8924614068985854 Q 7.548018639238313 -0.8723713825551254 7.6106100417745335 -0.883431053822793 Q 7.673201444310753 -0.8944907250904603 7.73856709818134 -0.938856604931512 Q 7.818826192174339 -0.9933311662553349 7.86084267003135 -1.060523915778563 Q 7.902859147888362 -1.1277166653017914 7.905068043629699 -1.1956881356375424 Q 7.9072769393710365 -1.2636596059732936 7.869650180518499 -1.3190962997622724 Q 7.835392982160219 -1.369568513510447 7.78293457140765 -1.390766747901896 Q 7.730476160655082 -1.4119649822933447 7.6676039614110065 -1.4013190176957442 Q 7.6047317621669315 -1.3906730530981437 7.539366108296345 -1.346307173257092 Q 7.4591070143033456 -1.291832611933269 7.416957626484122 -1.2239453590321192 Q 7.374808238664898 -1.1560581061309694 7.372880139631416 -1.0876729291251512 Q 7.370952040597934 -1.0192877521193329 7.409140392866181 -0.9630236449902202 M 7.6222875996019415 -0.557702651595684 L 7.636882452390449 -0.5642593483312212 L 7.706562861585374 -0.5067646479282464 L 8.204612212993181 -0.7305119240284518 L 8.210140217885328 -0.8206975169017727 L 8.224735070673836 -0.82725421363731 L 8.289072657391293 -0.684042220650083 L 8.016387606536533 -0.14166517187281696 L 8.39585377903772 -0.312139286996783 L 8.389219997474687 -0.42207560011566986 L 8.403814850263194 -0.428632296851207 L 8.507492617393874 -0.19785118713293687 L 8.492897764605367 -0.1912944903973997 L 8.424539327255696 -0.24828680604706393 L 7.8681105646938585 0.001687256995290154 L 7.8504894422171025 -0.03753640987382301 L 8.146640822779396 -0.6277290562114809 L 7.734336231504067 -0.4425023734325563 L 7.740970013067101 -0.33256606031366936 L 7.726375160278594 -0.3260093635781322 L 7.6222875996019415 -0.557702651595684 M 7.977921546109637 0.3225553397090626 L 7.993378772194651 0.31842325043646347 L 8.05810565094047 0.4056667669166237 L 8.588481720982552 0.2638844537505678 L 8.547677339415635 0.11124434616104353 L 8.383463622091147 0.0816494979189428 L 8.379331532818549 0.06619227183392767 L 8.578343318663118 0.012991622449214535 L 8.731747132908358 0.5868411408554006 L 8.53273534706379 0.6400417902401138 L 8.52860325779119 0.6245845641550987 L 8.6564029384009 0.5179626075230036 L 8.615340301254447 0.364356423303166 L 8.084964231212364 0.5061387364692219 L 8.072663235112646 0.615008775942691 L 8.057206009027631 0.6191408652152901 L 7.977921546109637 0.3225553397090626 M 8.115111257553417 0.8753767083696128 L 8.131007952700754 0.8735614719132138 L 8.179939325129617 0.9495003999556085 L 8.7244011339259 0.887328551323942 L 8.754953237233723 0.8023134409995522 L 8.77084993238106 0.8004982045431531 L 8.802389665810992 1.076703282728129 Q 8.814302155056112 1.1810253446325265 8.777946877975047 1.2460698972742286 Q 8.741591600893985 1.3111144499159306 8.666082298944135 1.3197368230838258 Q 8.610443865928456 1.3260901506812224 8.56341031113604 1.2932139476828701 Q 8.516376756343625 1.2603377446845176 8.486491215800783 1.2013474533946613 L 8.230735074810312 1.4207803505310346 L 8.201575269943266 1.49154549576593 L 8.18567857479593 1.493360732222329 L 8.167412757953414 1.333400237302253 L 8.447667128276025 1.1081504028626306 L 8.438250589158455 1.0256862967858211 L 8.192845357821444 1.053709009581481 L 8.160618997395764 1.1328763115041447 L 8.144722302248427 1.1346915479605437 L 8.115111257553417 0.8753767083696128 M 8.7440008510507 1.0501562243056188 L 8.737307166617727 0.9915371609498145 L 8.490908391834008 1.0196733260239994 L 8.498282789938129 1.084253650060055 Q 8.505316831206676 1.1458533437559848 8.545182440845089 1.1820642974600457 Q 8.585048050483502 1.2182752511641066 8.639692940052472 1.212035375845235 Q 8.69632491651486 1.2055685959693134 8.724133713531153 1.1626364307722652 Q 8.751942510547444 1.119704265575217 8.7440008510507 1.0501562243056188 M 8.161889906569813 1.9049063499516097 Q 8.165264958384219 1.8329854974451907 8.193619783738379 1.7727484334468928 Q 8.221974609092541 1.712511369448595 8.269557437517506 1.6691942315112807 Q 8.31714026594247 1.6258770935739661 8.380244004147444 1.6038108699605305 Q 8.443347742352419 1.5817446463470948 8.517266396317348 1.5852134496007888 Q 8.591185050282279 1.5886822528544828 8.651945002505027 1.616561065703838 Q 8.712704954727775 1.6444398785531935 8.75602209266509 1.6920227069781586 Q 8.799339230602405 1.739605535403124 8.821928342440291 1.8022332611032919 Q 8.844517454278176 1.86486098680346 8.84114240246377 1.936781839309879 Q 8.837767350649367 2.008702691816298 8.809412525295205 2.068939755814596 Q 8.781057699941044 2.1291768198128938 8.733474871516078 2.1724939577502083 Q 8.685892043091114 2.2158110956875228 8.622764867026318 2.238376769665586 Q 8.559637690961521 2.26094244364365 8.485719036996592 2.257473640389956 Q 8.411800383031661 2.2540048371362618 8.351063868668735 2.2256265739222787 Q 8.29032735430581 2.197248310708295 8.247010216368494 2.1496654822833303 Q 8.20369307843118 2.102082653858365 8.181103966593295 2.0394549281581966 Q 8.158514854755408 1.9768272024580287 8.161889906569813 1.9049063499516097 M 8.210897428639715 1.927228150518952 Q 8.208038009741399 1.9881610950035569 8.237846549973938 2.035610551577949 Q 8.267655090206476 2.083060008152341 8.324372563792556 2.1117502188523742 Q 8.381090037378636 2.1404404295524073 8.460003194989847 2.144143611404324 Q 8.55689656572766 2.148690556209842 8.630816891627331 2.120124222547883 Q 8.704737217527004 2.091557888885924 8.747271411277685 2.0384933775626344 Q 8.789805605028366 1.9854288662393447 8.792946278244548 1.9185025173792047 Q 8.795805697142864 1.8575695728945996 8.766543482994598 1.809144653450774 Q 8.737281268846331 1.7607197340069483 8.680587233120074 1.7315300729422871 Q 8.623893197393816 1.7023404118776262 8.544980039782605 1.6986372300257095 Q 8.448086669044791 1.6940902852201918 8.37364345492067 1.7231326313869564 Q 8.299200240796548 1.7521749775537212 8.256642609186045 1.8057389392416385 Q 8.21408497757554 1.859302900929556 8.210897428639715 1.927228150518952 M 8.132280501449099 2.3821756092106003 L 8.147951225678725 2.385404912869138 L 8.170779686481438 2.472811213427959 L 8.707501991346092 2.5834148637328855 L 8.763027151691501 2.512155081466754 L 8.778697875921127 2.515384385125292 L 8.722790556332688 2.7866837983506736 L 8.707119832103063 2.783454494692135 L 8.686309686086936 2.6862539914897985 L 8.14860796095793 2.575448509706214 L 8.100773900515836 2.807571112357533 L 8.254904150999543 2.911824965455777 L 8.251674847341004 2.9274956896854016 L 8.029346447333202 2.881679944029894 L 8.132280501449099 2.3821756092106003" fill="#173054" fill-rule="nonzero"></path></g><g><path d=" M 0.1586114674531688 5.031072665184416 L 0.19654465795332998 5.068230208947136 L -0.060939492453177924 5.710502084627084 L -0.1085167144364309 5.66389770770435 L -0.027853643431191788 5.463225465039841 L -0.23295004630494442 5.262322813170217 L -0.43127030140390377 5.3477436912825596 L -0.47949045881936286 5.300509525482491 L 0.1586114674531688 5.031072665184416 M -0.003502222093106244 5.417787394231156 L 0.12561390704573827 5.102057248068011 L -0.18866762656846914 5.236408197558894 L -0.003502222093106244 5.417787394231156 M 0.0869291418554755 5.83084021984798 L 0.4710349048948149 5.320170304149036 L 0.6868109256126788 5.482468513883967 Q 0.7198965821227512 5.5073542393766575 0.7369493247971349 5.541577827255213 Q 0.7540020674715187 5.575801415133769 0.756918483385098 5.614595480636357 Q 0.7598348992986774 5.653389546138944 0.749614062754001 5.690185463036434 Q 0.7393932262093246 5.726981379933925 0.7172124708788838 5.756470769432032 Q 0.6896217752239454 5.793152692954069 0.6512516024170444 5.814969712428978 Q 0.6128814296101435 5.836786731903887 0.5705771188192532 5.8398782992261 Q 0.5282728080283631 5.842969866548311 0.4883387043890071 5.824194687014652 L 0.4652564315141301 6.115403080916561 L 0.4084354127250926 6.072664552353029 L 0.43006053102732245 5.793874157506982 L 0.27901731652481776 5.680265410692529 L 0.13727688002297705 5.868709802119464 L 0.0869291418554755 5.83084021984798 M 0.3125589465367038 5.635671699744171 L 0.4794257358918518 5.761182315272519 Q 0.5096343787923527 5.783904064635409 0.5443740970128768 5.784132051386316 Q 0.5791138152334009 5.784360038137223 0.6116283992909464 5.766584934099136 Q 0.6441429833484917 5.748809830061049 0.6668647327113824 5.718601187160548 Q 0.6901274761067225 5.687673290857655 0.6958483169444782 5.6508711580375435 Q 0.7015691577822338 5.614069025217433 0.690365787934585 5.580303517608975 Q 0.6791624180869364 5.546538010000518 0.6503922819912212 5.524898248702527 L 0.4878410130504305 5.402633597368879 L 0.3125589465367038 5.635671699744171 M 0.7675466824180083 5.927698663927428 Q 0.7962960109583139 5.8767503949825315 0.8415755353433798 5.8377133654917746 Q 0.8868550597284458 5.798676336001018 0.9433376133354661 5.7773284171790324 Q 0.9998201669424863 5.755980498357046 1.0626908663887606 5.759938736745045 Q 1.1255615658350353 5.7638969751330436 1.1882671276133703 5.799280764105728 Q 1.2627299822251428 5.841299013510789 1.2963978647217163 5.905250234673461 Q 1.3300657472182893 5.969201455836132 1.325071751302842 6.036654698936791 L 1.2669235672668462 6.038978207773863 Q 1.2696836942770267 5.991965850899445 1.2544131884583651 5.9549304063625925 Q 1.2391426826397036 5.917894961825741 1.2134893798575535 5.891018381753728 Q 1.1878360770754033 5.864141801681715 1.1572671157084649 5.846892204557531 Q 1.107102666285797 5.818585173379384 1.057416926961524 5.81690000045046 Q 1.0077311876372508 5.815214827521535 0.9626755957508346 5.833710195583964 Q 0.9176200038644187 5.852205563646393 0.8810744604731986 5.88583703340673 Q 0.8445289170819787 5.919468503167067 0.8206448595254171 5.961794757367444 Q 0.7945493151580627 6.008040109178966 0.7863416480460849 6.059212310622512 Q 0.778133980934107 6.11038451206606 0.787996143204778 6.158835727276278 Q 0.7978583054754489 6.207286942486498 0.82503726693068 6.247941942845802 Q 0.8522162283859112 6.288596943205107 0.8968939411529748 6.3138078928481445 Q 0.9282467220421422 6.3314997873344865 0.9673593050459877 6.339102803233937 Q 1.0064718880498333 6.346705819133387 1.0479079241137965 6.340118906707527 Q 1.0893439601777597 6.333531994281668 1.126933668326095 6.307206838226613 L 1.1591262797506314 6.356374670898685 Q 1.1184404900671863 6.388186563609343 1.0660197896447774 6.39684220727253 Q 1.0135990892223685 6.405497850935717 0.960909636335407 6.395400620896114 Q 0.9082201834484456 6.38530339085651 0.8658939292480694 6.361419333299949 Q 0.8086751041253388 6.329131625862375 0.7747944801773528 6.277461171820484 Q 0.7409138562293667 6.225790717778593 0.7292544990034917 6.164957960245506 Q 0.7175951417776166 6.104125202712417 0.7277539504655011 6.042169887314601 Q 0.7379127591533855 5.980214571916784 0.7675466824180083 5.927698663927428 M 1.5992066181119473 6.354728685357299 Q 1.618073100517045 6.299354450900665 1.6553819532184735 6.252640700140283 Q 1.6926908059199017 6.205926949379901 1.7442710509275594 6.174534421209172 Q 1.7958512959352169 6.143141893038443 1.858374441844807 6.135444573662964 Q 1.9208975877543968 6.127747254287485 1.9890504917010219 6.150967540324528 Q 2.069982065137639 6.178541629993517 2.1148600473099615 6.2351918878582495 Q 2.159738029482284 6.291842145722982 2.1672619479294473 6.359060228492431 L 2.110538204900399 6.372061266019279 Q 2.1045861630625073 6.325345602714987 2.082751240911093 6.291759166842128 Q 2.060916318759678 6.258172730969269 2.030748865341588 6.236484779146485 Q 2.0005814119234984 6.214796827323702 1.9673568712495189 6.203476937880643 Q 1.9128345480922189 6.184900709051008 1.8636894282506036 6.192402021986306 Q 1.8145443084089883 6.199903334921604 1.7736695029241596 6.226386070365236 Q 1.7327946974393313 6.252868805808869 1.7030738926388638 6.2926598382409695 Q 1.6733530878383962 6.332450870673071 1.657679394763392 6.3784540808370425 Q 1.6405544338110727 6.428716847497679 1.6419189667227245 6.480525129170911 Q 1.6432834996343766 6.532333410844144 1.6619067830286416 6.578136858483125 Q 1.6805300664229068 6.6239403061221065 1.7147365518417037 6.658889431365718 Q 1.7489430372605006 6.69383855660933 1.7975019813224709 6.710383010410722 Q 1.8315784332957834 6.721993153429244 1.871422257924244 6.722257045408033 Q 1.9112660825527046 6.722520937386821 1.9507781986667805 6.70840976521057 Q 1.9902903147808564 6.69429859303432 2.0223840278374783 6.661496251925198 L 2.0630872759348904 6.703888298282038 Q 2.028961787850027 6.7426540184864905 1.979034485788585 6.7608230720905045 Q 1.9291071837271432 6.7789921256945185 1.8754593773810415 6.778779113368181 Q 1.8218115710349398 6.778566101041842 1.775808360870968 6.762892407966838 Q 1.7136188360196727 6.741703896958036 1.670795234387457 6.6971632229258065 Q 1.6279716327552411 6.652622548893578 1.6052998926467406 6.5949809215704995 Q 1.5826281525382402 6.537339294247421 1.581193890547082 6.474573018330009 Q 1.5797596285559237 6.411806742412597 1.5992066181119473 6.354728685357299 M 2.4674095330016512 6.942667554991817 Q 2.4011262814199874 6.9299090064943645 2.352319322865882 6.89301875308377 Q 2.3035123643117768 6.856128499673176 2.273387060018785 6.803128985135261 Q 2.243261755725794 6.750129470597346 2.233023466927471 6.68904313871793 Q 2.2227851781291483 6.627956806838514 2.2343529287668393 6.567859992071139 Q 2.2464310213444283 6.505111847240498 2.279497790246126 6.4523611003794175 Q 2.3125645591478237 6.399610353518338 2.361367154428985 6.362719816875139 Q 2.410169749710146 6.3258292802319405 2.469098490072231 6.310134820721081 Q 2.528027230434316 6.294440361210222 2.5907753752649576 6.306518453787811 Q 2.657058626846621 6.319277002285265 2.7056954714207606 6.357051032383614 Q 2.7543323159949 6.394825062481964 2.7839306749540302 6.448181408373774 Q 2.813529033913161 6.501537754265583 2.8238523797014667 6.562182197801121 Q 2.8341757254897724 6.622826641336659 2.822778088832048 6.682039679416279 Q 2.8106999962544585 6.744787824246921 2.777633227352761 6.797538571108 Q 2.744566458451063 6.8502893179690805 2.69620575151378 6.887264911602262 Q 2.6478450445764965 6.924240505235444 2.5890013612043945 6.939493076402425 Q 2.530157677832293 6.954745647569407 2.4674095330016512 6.942667554991817 M 2.2962172969097256 6.579767970668762 Q 2.286350686071695 6.631027018558582 2.2940413452108666 6.681541236972857 Q 2.301732004350038 6.732055455387132 2.3256044582528905 6.774686177227798 Q 2.3494769121557426 6.817316899068463 2.3881722890027173 6.8472199559468265 Q 2.426867665849692 6.87712301282519 2.4781267137395115 6.8869896236632195 Q 2.5320370916925983 6.897366576441149 2.579238167537875 6.883080798931736 Q 2.626439243383152 6.868795021422323 2.664159383259274 6.837103444501542 Q 2.7018795231353963 6.805411867580761 2.7268035444531957 6.761633754769107 Q 2.751727565770995 6.717855641957454 2.7610838346691278 6.669247924130901 Q 2.7709504455071583 6.617988876241081 2.7631747293780036 6.567916546170683 Q 2.755399013248849 6.517844216100286 2.7311697279921017 6.47468654892576 Q 2.706940442735355 6.431528881751234 2.668601897242275 6.402152770206731 Q 2.6302633517491953 6.372776658662229 2.5790043038593753 6.362910047824198 Q 2.5259777025940444 6.352703209026235 2.4788616837387507 6.366547098191771 Q 2.431745664883457 6.3803909873573055 2.3940255250073346 6.412082564278086 Q 2.3563053851312126 6.443774141198867 2.330939475469535 6.487467197020538 Q 2.3055735658078578 6.531160252842208 2.2962172969097256 6.579767970668762 M 2.918981623695289 7.0047208834642545 L 2.927674139526351 6.916950272388982 L 2.9805156298675866 6.922183521715846 L 2.9718231140365243 7.009954132791119 L 2.918981623695289 7.0047208834642545 M 3.8795823606876025 6.967221083487258 L 3.881375409837573 7.0229922675767655 L 3.452297106439261 7.0367871779725055 L 3.431763801657343 6.398117166624914 L 3.8527462880104033 6.384582537557396 L 3.854539337160374 6.440353721646904 L 3.4965243167148223 6.45186394038381 L 3.503927874495345 6.682144958559843 L 3.81606659835114 6.672109667349526 L 3.8177728870583696 6.725182245757283 L 3.5056341632025747 6.735217536967601 L 3.5134715231967997 6.978991583552386 L 3.8795823606876025 6.967221083487258 M 4.377858046844791 6.431886892841012 Q 4.36220967666578 6.4187922943080045 4.342586487350459 6.409488910993582 Q 4.3229632980351385 6.4001855276791595 4.299365289583508 6.394673359583321 Q 4.275767281131877 6.389161191487483 4.249596792550053 6.387681993262566 Q 4.223426303968228 6.386202795037648 4.194954165275853 6.390536075351926 Q 4.112207012201135 6.403129671265295 4.078309931514838 6.44060650305437 Q 4.04441285082854 6.478083334843446 4.052673166427632 6.532358349225787 Q 4.058360596840121 6.569728031259531 4.079850520925633 6.5883061275774795 Q 4.101340445011144 6.6068842238954275 4.142520860860478 6.614272278475347 Q 4.183701276709813 6.621660333055266 4.246371211588251 6.626688181733615 Q 4.316159181139783 6.630632710333394 4.368074799733369 6.642759480144239 Q 4.4199904183269565 6.654886249955083 4.451761111219353 6.684189587190576 Q 4.48353180411175 6.713492924426069 4.492198364740304 6.770437201810821 Q 4.4988337002215415 6.8140351641835215 4.486803308226506 6.848639205399047 Q 4.474772916231469 6.8832432466145725 4.447771229106528 6.909201460967774 Q 4.420769541981587 6.935159675320976 4.3805083608901025 6.951756355625143 Q 4.340247179798618 6.968353035929311 4.290420937086961 6.975936276479296 Q 4.241484448709439 6.9833841020194605 4.1949945822225905 6.979990385172857 Q 4.148504715735741 6.976596668326254 4.105418932978611 6.962670871250129 Q 4.06233315022148 6.948745074174005 4.022893205846406 6.922884857862244 L 4.046315951981386 6.867429335472709 Q 4.065929584526407 6.882651536968842 4.091877837052902 6.894633740055974 Q 4.117826089579396 6.906615943143106 4.1486389155763375 6.914671516001833 Q 4.179451741573278 6.922727088860559 4.213833141677065 6.92432218349829 Q 4.248214541780852 6.925917278136023 4.283804715146322 6.920500677743176 Q 4.3594338335479454 6.908990401908376 4.397499299114985 6.874975804583631 Q 4.435564764682025 6.840961207258887 4.427304449082933 6.7866861928765445 Q 4.421346188650801 6.747537002174528 4.3964035868712585 6.727208472555612 Q 4.371460985091716 6.706879942936696 4.326450721886191 6.698254039727788 Q 4.281440458680668 6.689628136518879 4.2169910151339565 6.6848711178601725 Q 4.148847139240877 6.6797660049066145 4.100625952993658 6.667987329390622 Q 4.052404766746439 6.65620865387463 4.025044213387122 6.628965212097352 Q 3.9976836600278043 6.601721770320074 3.9899650044679973 6.551005773274279 Q 3.9810276138198004 6.492281987221253 4.0037832467323815 6.447397177198844 Q 4.026538879644963 6.402512367176433 4.07407262395996 6.373884484764413 Q 4.121606368274957 6.345256602352393 4.187448189001077 6.335235891625626 Q 4.229266642705504 6.328871386164031 4.266588135831343 6.331839744440573 Q 4.303909628957183 6.334808102717115 4.337043623661682 6.346151862892746 Q 4.370177618366181 6.3574956230683775 4.400526453655456 6.377456539795434 L 4.377858046844791 6.431886892841012 M 4.995179260686652 6.209613438402567 L 4.775362549918078 6.269009597090524 L 4.927491841735456 6.832018405699362 L 4.8666729889536375 6.8484521254944495 L 4.714543697136259 6.285443316885612 L 4.494726986367685 6.34483947557357 L 4.48017140597775 6.290971348823959 L 4.980623680296717 6.1557453116529555 L 4.995179260686652 6.209613438402567 M 5.215231640686024 6.74152718749296 L 5.1860768371612 6.658285146243187 L 5.2361919436279 6.640732764529262 L 5.265346747152725 6.723974805779035 L 5.215231640686024 6.74152718749296 M 5.67073265618027 6.564598819132593 Q 5.657155785887746 6.537175679395138 5.648218633338708 6.50695333990404 Q 5.639281480789668 6.476731000412942 5.639416180365872 6.442519425529224 Q 5.6395508799420755 6.408307850645508 5.653588885739768 6.369723567663652 Q 5.667626891537459 6.331139284681795 5.700000337938398 6.286992257962824 Q 5.717400867291291 6.263313542240912 5.736614182368335 6.239239468556755 Q 5.755827497445379 6.215165394872598 5.771019883111875 6.1900692513887785 Q 5.786212268778371 6.164973107904959 5.790535863604436 6.140236666613212 Q 5.794859458430502 6.115500225321465 5.782480547281436 6.090496774384374 Q 5.772497554419286 6.07033270104801 5.751218718736531 6.056765326505148 Q 5.729939883053777 6.043197951962285 5.700156480799577 6.042879439537804 Q 5.670373078545378 6.042560927113322 5.634884309473377 6.060130994550705 Q 5.609074295602831 6.072909225414257 5.5916975367633865 6.090550604391984 Q 5.574320777923941 6.108191983369711 5.563580335400411 6.127066977261067 Q 5.5528398928768805 6.145941971152423 5.546938827954078 6.162421046756863 Q 5.541037763031275 6.178900122361304 5.537372574060558 6.189753066192769 L 5.48392234134117 6.169015356043302 Q 5.485559237721527 6.162179379870145 5.493484633482449 6.142689559398095 Q 5.501410029243371 6.1231997389260435 5.516802074767109 6.098506876908951 Q 5.532194120290848 6.07381401489186 5.557648393721562 6.04916077039718 Q 5.583102667152277 6.024507525902501 5.619397999157732 6.006538138750631 Q 5.66859833809846 5.982179636166986 5.712269199565182 5.982150331656118 Q 5.755940061031905 5.982121027145251 5.788866518222855 6.001972939316437 Q 5.821792975413805 6.021824851487624 5.838564403422217 6.055700494692715 Q 5.854936511716143 6.088769574964353 5.852601591958025 6.119551276504767 Q 5.850266672199907 6.150332978045181 5.836671565391355 6.178655373262819 Q 5.823076458582803 6.206977768480456 5.805472307620427 6.231259425526339 Q 5.78786815665805 6.255541082572221 5.772903163114486 6.273996947987886 Q 5.743779738960813 6.310509359104727 5.726754758808959 6.341031974504279 Q 5.709729778657105 6.371554589903831 5.703389776497403 6.397289330481793 Q 5.697049774337701 6.423024071059754 5.6971662373978775 6.44455803113113 Q 5.697282700458053 6.466091991202506 5.703240802157413 6.486240217529905 L 5.9919903323341455 6.343283759743921 L 6.016748154632277 6.393290661618104 L 5.67073265618027 6.564598819132593 M 6.411105292115665 5.840581038637947 Q 6.453920461104039 5.907210621440911 6.462640661497303 5.974888114783242 Q 6.471360861890567 6.0425656081255745 6.447177968376676 6.099827180417084 Q 6.422995074862785 6.157088752708594 6.368479961660359 6.192119345517263 Q 6.3139648484579345 6.227149938325932 6.252210723243002 6.225110203309199 Q 6.19045659802807 6.223070468292466 6.1321427877076 6.187261083685798 Q 6.073828977387129 6.151451699079131 6.031013808398757 6.084822116276167 Q 5.988198639410383 6.0181925334732025 5.9798570161921365 5.950271772125256 Q 5.971515392973889 5.882351010777309 5.995076441307147 5.8249541293163976 Q 6.018637489640406 5.767557247855486 6.073152602842831 5.732526655046818 Q 6.127667716045256 5.697496062238149 6.190043686440821 5.699671106424283 Q 6.252419656836385 5.701846150610417 6.310354889981839 5.7378988032227 Q 6.368290123127292 5.773951455834983 6.411105292115665 5.840581038637947 M 6.358861641963341 5.874152023412922 Q 6.324317585165904 5.8203940645605305 6.280630090508628 5.790698057917036 Q 6.2369425958513505 5.761002051273542 6.191059919157409 5.757856820058007 Q 6.1451772424634665 5.754711588842472 6.104290907561648 5.780984533448973 Q 6.063404572659829 5.807257478055475 6.047200592651009 5.850298662191994 Q 6.0309966126421894 5.893339846328514 6.0394764300229 5.945659777494273 Q 6.04795624740361 5.997979708660033 6.082500304201047 6.051737667512424 Q 6.117044360998484 6.1054956263648155 6.161110432830777 6.134948365002694 Q 6.205176504663071 6.164401103640572 6.250815913351397 6.16716775768109 Q 6.296455322039724 6.169934411721609 6.337341656941542 6.143661467115107 Q 6.378227991843361 6.117388522508605 6.394431971852181 6.074347338372086 Q 6.410635951861001 6.031306154235567 6.40202082531089 5.97960806825044 Q 6.393405698760779 5.927909982265313 6.358861641963341 5.874152023412922 M 6.69482087128021 5.958046717354546 Q 6.675518495845746 5.934302701211799 6.660122382444791 5.906803206813811 Q 6.644726269043835 5.879303712415825 6.637295901680744 5.845908508555847 Q 6.629865534317655 5.812513304695868 6.635028113921333 5.771780513583108 Q 6.640190693525011 5.7310477224703495 6.6620057040998155 5.680837112898057 Q 6.673742199294601 5.653898020846862 6.687159259783585 5.626172671654562 Q 6.700576320272568 5.598447322462262 6.709845993032052 5.570613922257974 Q 6.719115665791535 5.542780522053685 6.717864866352708 5.517700240939554 Q 6.716614066913882 5.492619959825423 6.699014842253048 5.470971003930566 Q 6.6848219191394715 5.453512168531487 6.661070588418974 5.444983581954245 Q 6.637319257698475 5.436454995377004 6.608202078059416 5.442727343411576 Q 6.5790848984203585 5.448999691446149 6.54835734811798 5.473979236126043 Q 6.526010038807159 5.49214617771142 6.512962302313005 5.513191998493207 Q 6.49991456581885 5.534237819274995 6.493611675980918 5.555019928881357 Q 6.487308786142986 5.575802038487721 6.485196016800833 5.593177846546826 Q 6.48308324745868 5.610553654605931 6.481907519035899 5.621948287670486 L 6.425195626695961 5.61353750487557 Q 6.425281092228519 5.6065087997570755 6.4287026646774565 5.5857492756301435 Q 6.432124237126395 5.564989751503211 6.44167776834815 5.537505528006904 Q 6.451231299569905 5.510021304510597 6.470606949574006 5.480351678848676 Q 6.4899825995781075 5.450682053186754 6.521408503296449 5.425134791582318 Q 6.564008061670201 5.390504059185192 6.606592349142273 5.380822971410778 Q 6.649176636614345 5.371141883636363 6.685676574465047 5.383225117346546 Q 6.722176512315748 5.3953083510567295 6.746020623146556 5.424639194527182 Q 6.76929701705282 5.45327168458167 6.773823481547486 5.483808156532087 Q 6.77834994604215 5.514344628482503 6.771351140980839 5.5449714423506435 Q 6.7643523359195274 5.575598256218785 6.752550522479032 5.603170383440234 Q 6.740748709038536 5.6307425106616815 6.730233113225394 5.65204960442631 Q 6.709900275015073 5.694096075031021 6.700042738044199 5.727626791767587 Q 6.690185201073326 5.761157508504154 6.689690116972244 5.787657081929643 Q 6.6891950328711625 5.814156655355132 6.694068235881225 5.8351322815060405 Q 6.698941438891287 5.85610790765695 6.7092055144919245 5.874440903922275 L 6.959216037406731 5.671198244935867 L 6.994414486728399 5.714496156725582 L 6.69482087128021 5.958046717354546 M 7.3508238166656765 5.559926066825321 Q 7.303199489020191 5.607760922488482 7.240547608036948 5.622854441271777 Q 7.1778957270537065 5.6379479600550715 7.119940313389475 5.618347449168674 L 7.126829775409466 5.56805684057149 Q 7.175861630097046 5.581313055185627 7.225792637573058 5.569429579581644 Q 7.275723645049069 5.5575461039776615 7.312553125094912 5.52055381559815 Q 7.344302676858569 5.48866391182271 7.355353265090664 5.449501085064103 Q 7.36640385332276 5.4103382583054955 7.356452017706835 5.370585353155386 Q 7.34650018209091 5.3308324480052764 7.31397248023996 5.298447905206346 Q 7.282720374540029 5.267333344477962 7.2445156484148026 5.257871637354167 Q 7.2063109222895765 5.248409930230373 7.168470007845876 5.259630344396726 Q 7.130629093402175 5.270850758563079 7.100149523709064 5.301465066187502 Q 7.070939936086499 5.330803777660908 7.057345173152958 5.370608613055377 Q 7.043750410219417 5.410413448449846 7.052114768247159 5.451760848788728 L 7.012110333024951 5.491942127545784 L 6.807155394608005 5.187559665471331 L 7.024957319706692 4.9687949255718085 L 7.065138598463747 5.008799360794017 L 6.87972121616399 5.195036398842589 L 7.011245164690353 5.388211218537172 Q 7.009896585493208 5.353848719586295 7.0241403746632 5.3197700316702266 Q 7.038384163833193 5.2856913437541575 7.066323769385211 5.25762822843177 Q 7.107598186677966 5.2161713535236975 7.159431360219561 5.201101694582406 Q 7.211264533761157 5.186032035641115 7.263476957705573 5.198644838099272 Q 7.315689381649991 5.211257640557429 7.357784054633572 5.253167048885456 Q 7.4024299199191885 5.297616421354576 7.414961018239506 5.352637181753598 Q 7.427492116559822 5.407657942152619 7.410747661812036 5.462106869921671 Q 7.39400320706425 5.516555797690722 7.3508238166656765 5.559926066825321" fill="#225777" fill-rule="nonzero"></path></g><g transform="matrix(1,0,0,1,0,0)" clip-path="url(#SvgjsClipPath23700)"><g clip-path="url(#SvgjsClipPath2368764030040-f443-4808-bc20-ef1cf25d6fb9)"><path d=" M 1.8344689917656503 1.6627284862316094 C 3.560285826968949 -0.15456645498063765 4.568297447205481 1.3315146541302514 4.856050416681904 3.3706702892262674 L 5.907522899543377 3.3706702892262674 C 5.5875247739258675 0.6252756364749585 4.213250238825923 -1.4762673659375056 1.7804934043120948 1.3245048375778337 C 1.1874629239782237 2.0072609697825574 0.5939651225408589 2.6893161203320304 0 3.3706702892262674 L 0.42058899314458925 3.3706702892262674 C 0.9463252345753259 2.8309144146907057 1.631534802573386 2.179001475316592 2.039856616751258 3.3706702892262674 L 2.5796124912868144 3.3706702892262674 C 2.3749258479564475 2.5754066013553687 1.9333074051546284 2.052123795717978 1.255458144536599 2.4310043803757297 C 2.3882444994060266 1.3616568653056107 3.0822163380945984 2.155518589866023 3.3380746422575567 3.3706702892262674 L 4.109154463022637 3.3706702892262674 C 3.858553521273986 1.8986088132202041 3.1011428427861047 0.808231848492851 1.8358709550761318 1.6627284862316094 Z M 6.175648382673051 3.3706702892262674 C 6.106630861262352 2.6874918239349275 5.942900971206268 2.017237331644805 5.689167113935823 1.379181406686665 C 6.3526462506214 1.5092135037338354 6.771132298800268 2.3472370725744325 6.944975749300031 3.3706702892262674 Z" fill="#225777" transform="matrix(1,0,0,1,0,0)" fill-rule="evenodd"></path></g></g><g transform="matrix(-0.6464990312066787,-0.7629148069403463,0.7629148069403463,-0.6464990312066787,-4.694857422668459,6.005871595667456)"><g clip-path="url(#SvgjsClipPath23701)"><path d=" M -0.956001117975995 4.272453230896056 C -0.8547886960794432 4.272453230896056 -0.7709518409932363 4.188795736499504 -0.7709518409932363 4.087403953913297 C -0.7709518409932363 3.9861919396546766 -0.8547886960794432 3.902355288387435 -0.9561804786656501 3.902355288387435 C -1.0573931043811673 3.902355288387435 -1.1410503949587536 3.9861919396546766 -1.1410503949587536 4.087403953913297 C -1.1410503949587536 4.188795736499504 -1.0572139475104778 4.272453230896056 -0.956001117975995 4.272453230896056 Z M -0.956001117975995 4.236089889258125 C -1.0384045142777192 4.236089889258125 -1.1045062658984088 4.169807961671918 -1.1045062658984088 4.087403953913297 C -1.1045062658984088 4.005001984344331 -1.0385836711484087 3.9388994174477796 -0.9561804786656501 3.9388994174477796 C -0.8737764709070295 3.9388994174477796 -0.8074965815104777 4.005001984344331 -0.8073172208208226 4.087403953913297 C -0.8073172208208226 4.169807961671918 -0.8735971102173743 4.236089889258125 -0.956001117975995 4.236089889258125 Z M -0.9558217572863398 4.157625702102952 C -0.9171287648725467 4.157625702102952 -0.8856000090966846 4.126098984516745 -0.8856000090966846 4.087047270723642 C -0.8856000090966846 4.0483522401201935 -0.9171287648725467 4.016823484344331 -0.9558217572863398 4.016823484344331 C -0.9948734710794432 4.016823484344331 -1.0264022268553052 4.0483522401201935 -1.0264022268553052 4.087047270723642 C -1.0264022268553052 4.126098984516745 -0.9948734710794432 4.157625702102952 -0.9558217572863398 4.157625702102952 Z" fill="#173054" transform="matrix(1,0,0,1,0,0)" fill-rule="nonzero"></path></g></g><g transform="matrix(0.6464990312066787,-0.7629148069403463,-0.7629148069403463,-0.6464990312066787,5.913805485084177,12.762991245360901)"><g clip-path="url(#SvgjsClipPath23702)"><path d=" M 7.900976867276025 4.2724532308960566 C 8.002189289172577 4.2724532308960566 8.086026144258783 4.188795736499505 8.086026144258783 4.087403953913298 C 8.086026144258783 3.9861919396546774 8.002189289172577 3.9023552883874357 7.90079750658637 3.9023552883874357 C 7.799584880870853 3.9023552883874357 7.7159275902932665 3.9861919396546774 7.7159275902932665 4.087403953913298 C 7.7159275902932665 4.188795736499505 7.799764037741542 4.2724532308960566 7.900976867276025 4.2724532308960566 Z M 7.900976867276025 4.236089889258126 C 7.818573470974301 4.236089889258126 7.752471719353611 4.169807961671919 7.752471719353611 4.087403953913298 C 7.752471719353611 4.005001984344332 7.818394314103611 3.9388994174477805 7.90079750658637 3.9388994174477805 C 7.983201514344991 3.9388994174477805 8.049481403741542 4.005001984344332 8.049660764431197 4.087403953913298 C 8.049660764431197 4.169807961671919 7.983380875034646 4.236089889258126 7.900976867276025 4.236089889258126 Z M 7.90115622796568 4.157625702102953 C 7.9398492203794735 4.157625702102953 7.971377976155336 4.126098984516746 7.971377976155336 4.087047270723643 C 7.971377976155336 4.048352240120194 7.9398492203794735 4.016823484344332 7.90115622796568 4.016823484344332 C 7.862104514172577 4.016823484344332 7.830575758396715 4.048352240120194 7.830575758396715 4.087047270723643 C 7.830575758396715 4.126098984516746 7.862104514172577 4.157625702102953 7.90115622796568 4.157625702102953 Z" fill="#173054" transform="matrix(1,0,0,1,0,0)" fill-rule="nonzero"></path></g></g></g><defs><clipPath id="SvgjsClipPath23700"><path d=" M 0 0 h 6.944975749300031 v 3.3706702892262634 h -6.944975749300031 Z"></path></clipPath><clipPath id="SvgjsClipPath2368764030040-f443-4808-bc20-ef1cf25d6fb9"><path d=" M 0 -3.084188792934498e-16 L 6.944975749300031 -3.084188792934498e-16 L 6.944975749300031 3.3706702892262634 L 0 3.3706702892262634 Z"></path></clipPath><clipPath id="SvgjsClipPath23701"><path d=" M -1.2413476697001329 3.795092908137435 h 0.5706931034482758 v 0.591075 h -0.5706931034482758 Z"></path></clipPath><clipPath id="SvgjsClipPath23702"><path d=" M 7.615630315551887 3.795092908137436 h 0.5706931034482758 v 0.591075 h -0.5706931034482758 Z"></path></clipPath></defs></svg>