<svg xmlns="http://www.w3.org/2000/svg" version="1.1" xmlns:xlink="http://www.w3.org/1999/xlink" xmlns:svgjs="http://svgjs.dev/svgjs" viewBox="0 0 5.976937800025196 5.354497811230502"><g transform="matrix(0.8500843521349255,0,0,0.8500843521349255,2.986470443693311,4.239368803458173)"><rect width="6.921224100963171" height="6.921224100963171" x="-3.4582611586974137" y="-5.298217805627849" fill="#ffffff"></rect><g transform="matrix(1,0,0,1,0,0)"><path d=" M -1.8023042825356719 -0.9505155195145385 L -2.402512532072431 -0.9341736350448936 L -2.436254356387589 -1.0967082138024151 L -1.8787315472495236 -1.3186661316400092 L -1.8523072270027132 -1.1913800157455645 L -1.9553729875261892 -1.151600008107085 L -1.9378922833629146 -1.0673953468230677 L -1.8277122827729897 -1.0729060155668892 L -1.8023042825356719 -0.9505155195145385 M -1.9950880015350023 -1.05756428264979 L -2.0119589136925815 -1.138831572028551 L -2.3179238834771776 -1.0334397447139478 L -1.9950880015350023 -1.05756428264979 M -1.8815407066058227 -1.3699483715041543 L -2.472502991687783 -1.3766250181705475 L -2.4700627959518426 -1.5926112340380658 Q -2.469396261005451 -1.6516074689278049 -2.442559036039861 -1.681306178599208 Q -2.415721811074271 -1.7110048882706115 -2.368724810399394 -1.7104739197539947 L -2.2767306814187847 -1.7094345771257236 Q -2.229733680743908 -1.708903608609107 -2.198018152899639 -1.6835436935154122 Q -2.16630262505537 -1.6581837784217175 -2.1619016958640147 -1.6051306746270038 L -2.1619016958640147 -1.6051306746270038 Q -2.1565179100567944 -1.6390720188900403 -2.1388552173908097 -1.653373392522911 Q -2.121192524724825 -1.6676747661557818 -2.0820707442992297 -1.678233473289305 L -1.8774511193076258 -1.731925270319162 L -1.8789084584277016 -1.602933502509394 L -2.075381730310475 -1.5621504982591212 Q -2.0994479819550866 -1.556422014011239 -2.116031658019131 -1.54910889646789 Q -2.1326153340831757 -1.5417957789245413 -2.1327734949179122 -1.5277966723405354 L -2.1331575998022734 -1.4937988420650927 L -1.8801737451055966 -1.4909406498373474 L -1.8815407066058227 -1.3699483715041543 M -2.214152430752593 -1.4947139154660705 L -2.213610165033495 -1.542710852325519 Q -2.213293843364021 -1.5707090654935307 -2.2286572877951105 -1.5828834063468515 Q -2.2440207322261996 -1.5950577472001723 -2.278018562501642 -1.5954418520845333 L -2.3490140316062433 -1.5962439534606991 Q -2.381011989512542 -1.5966054639400977 -2.3941354291392694 -1.585753029542063 Q -2.4072588687659966 -1.5749005951440285 -2.4075187044230644 -1.551902062898876 L -2.4081400505595307 -1.4969055727474245 L -2.214152430752593 -1.4947139154660705 M -1.8183758868051432 -1.9433773227243496 Q -1.8294799940450297 -1.8956520799024938 -1.8491788575949704 -1.8617337253604347 Q -1.868877721144911 -1.8278153708183755 -1.9093003674439986 -1.8151461298711502 Q -1.9497230137430863 -1.802476888923925 -2.019849901154793 -1.8187931281335543 L -2.321785110844085 -1.8890436025083472 Q -2.3734062918554795 -1.901054167482102 -2.3967796334100973 -1.9285666538214206 Q -2.4201529749647146 -1.9560791401607394 -2.4227424487878912 -1.9956966189462335 Q -2.425331922611068 -2.0353140977317277 -2.414227815371181 -2.0830393405535834 Q -2.4028970936978276 -2.1317385679228242 -2.3829378523076614 -2.1645696307007647 Q -2.3629786109174953 -2.1974006934787056 -2.3302007703739944 -2.2103085658558568 Q -2.2974229298304936 -2.223216438233008 -2.2467757333664835 -2.21143248769272 L -2.127949618585536 -2.183785526809737 L -2.1542368928677167 -2.070803319313099 L -2.277932930385588 -2.099583352363417 Q -2.3013085595228233 -2.105022098766627 -2.314843052965936 -2.1020108719006565 Q -2.3283775464090484 -2.098999645034686 -2.334652936149992 -2.089679265021014 Q -2.3409283258909355 -2.0803588850073416 -2.3441009279594747 -2.066723101343954 Q -2.347273530028014 -2.053087317680567 -2.3458703506066123 -2.0414670299254656 Q -2.3444671711852108 -2.0298467421703643 -2.333652050943703 -2.021170154467717 Q -2.3228369307021954 -2.0124935667650696 -2.2994613015649596 -2.00705482036186 L -1.950774833601197 -1.9259268531806475 Q -1.9283731890113465 -1.920714721210905 -1.9148386955682337 -1.9237259480768754 Q -1.9013042021251212 -1.926737174942846 -1.8944285128937517 -1.9364312400134769 Q -1.8875528236623822 -1.946125305084108 -1.8843802215938432 -1.9597610887474954 Q -1.8812076195253042 -1.9733968724108828 -1.8832110984371315 -1.9846434751090252 Q -1.885214577348959 -1.9958900778071675 -1.8960296975904667 -2.004566665509815 Q -1.9068448178319743 -2.0132432532124622 -1.929246462421825 -2.0184553851822047 L -2.043202654465848 -2.0449692738978524 L -2.0169153801836677 -2.1579514813944907 L -1.9458145082245764 -2.141408627751394 Q -1.874713636265485 -2.1248657741082977 -1.8436954889552808 -2.0971146563390533 Q -1.8126773416450765 -2.069363538569809 -1.8097479461716994 -2.031207036605392 Q -1.8068185506983223 -1.993050534640975 -1.8183758868051432 -1.9433773227243496 M -1.7003377688193404 -2.3274726144944036 L -2.216125636145051 -2.6159927626982946 L -2.0833380214048507 -2.8533773649192646 L -2.0117735457352937 -2.8133458045931747 L -2.085490199506508 -2.6815624408602097 L -1.9475976732163855 -2.604428458768476 L -1.8851093839268795 -2.7161388598136385 L -1.8056902706838345 -2.6717135916468804 L -1.8681785599733405 -2.5600031906017175 L -1.6412668078503543 -2.433073852982409 L -1.7003377688193404 -2.3274726144944036 M -1.5336540576431994 -2.605142065424277 L -2.037619592285923 -2.9865116235857454 L -1.9688282479340125 -3.0774167991383887 L -1.464862713291289 -2.69604724097692 L -1.5336540576431994 -2.605142065424277 M -1.3066201747055062 -2.856941035142731 Q -1.3437570428041856 -2.82054250457045 -1.3771597720173463 -2.8039064689515816 Q -1.410562501230507 -2.7872704333327127 -1.4475665960481978 -2.7993098256231623 Q -1.4845706908658889 -2.811349217913612 -1.5335687127901134 -2.8613411557387574 L -1.6896624112058576 -3.0206011862388635 Q -1.7407603483554062 -3.0727356356850866 -1.7318069343093117 -3.1193171382039964 Q -1.7228535202632174 -3.165898640722906 -1.666434047574839 -3.2211964083231024 Q -1.6107287454268198 -3.2757942041815244 -1.5639768573248949 -3.2838104975210363 Q -1.5172249692229702 -3.291826790860548 -1.4661270320734217 -3.239692341414325 L -1.3716308469338456 -3.1432793184658303 L -1.5137507844653304 -3.0039849418526776 L -1.4192545993257544 -2.907571918904183 Q -1.3982554470725153 -2.886146802693406 -1.383071166037807 -2.8842264877559547 Q -1.3678868850030987 -2.882306172818503 -1.3500326214941183 -2.899805466362869 Q -1.3336066990658562 -2.9159048164236854 -1.3355859245032111 -2.930067537442901 Q -1.337565149940566 -2.9442302584621163 -1.35926427393558 -2.966369545213252 L -1.4145620415357762 -3.022789017901631 L -1.3324324293944658 -3.103285768205714 L -1.310733305399452 -3.081146481454578 Q -1.2617352834752276 -3.031154543629433 -1.2500913422395812 -2.9935590833649166 Q -1.2384474010039348 -2.9559636231004003 -1.2550366096159196 -2.9236016367950444 Q -1.2716258182279043 -2.8912396504896885 -1.3066201747055062 -2.856941035142731 M -1.5501493150376116 -3.041121809951357 L -1.490158989647437 -3.0999194362604263 L -1.5524564746653797 -3.1634806143523972 Q -1.5727556551768442 -3.1841915600228146 -1.5872257656711932 -3.1868118467020405 Q -1.6016958761655422 -3.189432133381267 -1.6188359691341636 -3.1726328115786755 Q -1.6359760621027848 -3.1558334897760845 -1.6343610213349018 -3.1406137117449147 Q -1.6327459805670188 -3.125393933713745 -1.6124468000555543 -3.1046829880433275 L -1.5501493150376116 -3.041121809951357 M -1.0226001307018717 -3.0844334344250015 Q -1.0660780067354387 -3.055908457727206 -1.102068426566521 -3.0460499750659427 Q -1.1380588463976034 -3.036191492404679 -1.1720341053337218 -3.0551633605315587 Q -1.20600936426984 -3.0741352286584385 -1.244408371363026 -3.1326631387036246 L -1.3667366368170333 -3.319116337847576 Q -1.4067813156427844 -3.380152586894699 -1.3889839542106952 -3.4241213704354747 Q -1.371186592778606 -3.4680901539762505 -1.3051336657276096 -3.5114261762671317 Q -1.239916851677259 -3.554213641313825 -1.1924973990589978 -3.5530323228197425 Q -1.1450779464407361 -3.55185100432566 -1.105033267614985 -3.490814755278537 L -1.0309780396495547 -3.3779395001913914 L -1.1973645267780135 -3.2687766085979053 L -1.123309298812583 -3.15590135351076 Q -1.1068525814869319 -3.130817963491394 -1.092326821050539 -3.1259959013034373 Q -1.077801060614146 -3.121173839115481 -1.056898235598008 -3.13488777022019 Q -1.037667636583161 -3.1475045868365226 -1.0368690843858404 -3.161782622919547 Q -1.0360705321885197 -3.176060659002572 -1.0530758067583592 -3.201980162022583 L -1.0964118290492406 -3.268033089073579 L -1.0002588339750058 -3.331117172155242 L -0.9832535594051662 -3.305197669135231 Q -0.9448545523119801 -3.2466697590900444 -0.9407050827770065 -3.2075317736720605 Q -0.9365556132420327 -3.1683937882540767 -0.959093103456137 -3.1398532638221544 Q -0.9816305936702412 -3.111312739390232 -1.0226001307018717 -3.0844334344250015 M -1.2258895034758088 -3.312254484631472 L -1.155656011421585 -3.3583332931432954 L -1.2044776061543503 -3.432747350200747 Q -1.220385766235813 -3.4569946272194674 -1.2340754136715604 -3.462365246651612 Q -1.247765061107308 -3.4677358660837574 -1.2678317731228004 -3.4545704922232363 Q -1.2878984851382929 -3.4414051183627157 -1.2892588717141649 -3.4261604685351794 Q -1.2906192582900369 -3.410915818707644 -1.274711098208574 -3.3866685416889237 L -1.2258895034758088 -3.312254484631472 M -0.705667144409273 -3.25633205254139 Q -0.7267645516219128 -3.2471723904895424 -0.7494549435392217 -3.241681842735545 Q -0.7721453354565306 -3.236191294981548 -0.7932361808227811 -3.2395715674168564 Q -0.8143270261890317 -3.2429518398521653 -0.8329793832957169 -3.2582926212652707 Q -0.8516317404024021 -3.2736334026783767 -0.8659686027444244 -3.30665543135903 L -0.9938056252941233 -3.601101853761524 L -1.0369177182938654 -3.5823842834816615 L -1.0596177503354007 -3.6346691622260296 L -1.0113153333527056 -3.666541980012191 L -1.0328792781925271 -3.756386269106964 L -0.9521587636398184 -3.791431932609685 L -0.9159183616085954 -3.7079595823335887 L -0.8296941756091112 -3.7453947228933133 L -0.803011681805903 -3.6839370584043194 L -0.8892358678053872 -3.6465019178445948 L -0.769363768779034 -3.3704010669313527 Q -0.761000599079521 -3.3511382168676382 -0.7470913085770601 -3.3391890897983436 Q -0.733182018074599 -3.327239962729049 -0.7074982179896463 -3.338390855661733 Q -0.6955735965216325 -3.343568055951908 -0.6805772300200194 -3.3517141588084454 Q -0.6655808635184062 -3.3598602616649833 -0.6628290277950183 -3.361055000193485 L -0.6353500416394755 -3.297762778555566 Q -0.6381018773628634 -3.296568040027064 -0.6585839715563606 -3.2822246158386528 Q -0.6790660657498577 -3.267881191650241 -0.705667144409273 -3.25633205254139 M -0.4218455805849351 -3.3623996939588547 L -0.48380964019915423 -3.95014237176618 L -0.33960881400277154 -3.9653450598271984 L -0.21900402944266145 -3.593943005523228 L -0.17750719558890687 -3.982434978130274 L -0.0343008578490509 -3.9975328200667337 L 0.027663201765168233 -3.4097901422594084 L -0.07377462080056307 -3.399095837554416 L -0.12011660785552897 -3.8386597353392515 L -0.15830613960533912 -3.390183916966923 L -0.23687072767095455 -3.3819010731267816 L -0.3667497450741698 -3.8126578964486826 L -0.32040775801920385 -3.373093998663847 L -0.4218455805849351 -3.3623996939588547 M 0.19523027206364732 -3.3791811516988606 Q 0.16947017428748545 -3.38270497952703 0.14812650485800635 -3.392689856856528 Q 0.12678283542852725 -3.4026747341860255 0.11546609344312198 -3.4269323381657215 Q 0.1041493514577167 -3.4511899421454175 0.11011275239769558 -3.4947839537666145 L 0.11905785380766387 -3.56017497119841 Q 0.12542785026627767 -3.6067413017937797 0.15667229679610253 -3.632241979452323 Q 0.1879167433259274 -3.6577426571108655 0.24921851844843146 -3.6705525113969197 Q 0.2816943950956322 -3.6792310732591065 0.30088362733611707 -3.6866992300612056 Q 0.3200728595766019 -3.6941673868633043 0.3299642551811308 -3.707449340522112 Q 0.3398556507856597 -3.720731294180919 0.34324394677428405 -3.74550061896569 L 0.3469033064419983 -3.772251489733243 Q 0.3490718158747179 -3.7881038575954964 0.34526997155389605 -3.7972030872200433 Q 0.34146812723307407 -3.80630231684459 0.33259791117304094 -3.811552961285831 Q 0.3237276951130079 -3.816803605727072 0.31183841921631783 -3.8184299878016112 Q 0.28607832144015594 -3.8219538156297808 0.2757803303169921 -3.8056995429968006 Q 0.26548233919382835 -3.789445270363821 0.2599255337724844 -3.7488235777167964 L 0.2542331965115955 -3.707211112078381 L 0.1521835783983389 -3.7211708915515134 L 0.15936676589422252 -3.7736818600952278 Q 0.16438144395738657 -3.810340460776689 0.17864721779402218 -3.8371544067161056 Q 0.19291299163065778 -3.8639683526555224 0.2258632297162659 -3.876114619987577 Q 0.2588134678018741 -3.888260887319632 0.3202413932681062 -3.8798579132678435 Q 0.38266009172572923 -3.87131940737651 0.41478775727825057 -3.8553174354309863 Q 0.446915422830772 -3.8393154634854625 0.456474941650001 -3.813279611282302 Q 0.46603446046923 -3.787243759079142 0.4603421232083411 -3.7456312934407268 L 0.40734917394625625 -3.358239053806908 L 0.29440105292770036 -3.373689683515035 L 0.3018553041026739 -3.4281821980415312 Q 0.289998696824743 -3.4005340360075564 0.25945762529783944 -3.387553552580944 Q 0.22891655377093592 -3.3745730691543314 0.19523027206364732 -3.3791811516988606 M 0.2539430366076716 -3.44684806591547 Q 0.28069390737522426 -3.4431887062477555 0.29387542649550014 -3.4620764682560456 Q 0.3070569456157759 -3.4809642302643358 0.3120716236789399 -3.517622830945797 L 0.32928416730115173 -3.6434510008524335 Q 0.32198421095735685 -3.634356461975795 0.3070969002812978 -3.628823110293993 Q 0.29220958960523874 -3.6232897586121915 0.2771189811698622 -3.6162702474433037 Q 0.25653238041935156 -3.6059653035065775 0.24479497067158598 -3.593945186518251 Q 0.23305756092382043 -3.581925069529924 0.22980479677474105 -3.558146517736544 L 0.22289267295794737 -3.507617095175611 Q 0.2200465043275029 -3.4868108623564034 0.2233062212901449 -3.473748540766293 Q 0.22656593825278695 -3.4606862191761825 0.23480523597757963 -3.4545125676633237 Q 0.24304453370237233 -3.4483389161504645 0.2539430366076716 -3.44684806591547 M 0.47433366162523316 -3.342090338606217 L 0.6374031151695733 -3.8094588798247613 L 0.7289884656709851 -3.7775038555948606 L 0.7193231264924269 -3.719447148673408 Q 0.7377037335172695 -3.7448076156525136 0.7689837051528936 -3.754017033358023 Q 0.8002636767885176 -3.763226451063533 0.830477400665272 -3.7526845874000605 Q 0.8757979864804035 -3.7368717919048517 0.8930226309364913 -3.713386442783296 Q 0.9102472753925791 -3.68990109366174 0.9085545152325782 -3.6592476344272473 Q 0.9068617550725775 -3.6285941751927546 0.8936844254932368 -3.5908270203468113 L 0.7708058271658855 -3.2386483014083933 L 0.663169435854948 -3.276203690709514 L 0.7837420015059147 -3.6217731575498924 Q 0.7876952003797169 -3.633103304003675 0.7902100705231452 -3.6433466153902185 Q 0.7927249406665735 -3.653589926776762 0.791111601662273 -3.662625807323627 Q 0.7894982626579727 -3.671661687870491 0.7834272812664599 -3.6785459587065277 Q 0.777356299874947 -3.6854302295425647 0.7622494379365699 -3.690701161374301 Q 0.750919291482787 -3.694654360248103 0.7409392320647741 -3.693370454483286 Q 0.730959172646761 -3.692086548718469 0.724261678854117 -3.688068641688995 Q 0.7175641850614731 -3.6840507346595213 0.7130844822506097 -3.680318140022229 L 0.5819700529361707 -3.304534949305096 L 0.47433366162523316 -3.342090338606217 M 0.9042960551136476 -3.156578849412001 Q 0.8819351211073544 -3.169844920057305 0.8661559472371826 -3.1873454249635893 Q 0.8503767733670108 -3.2048459298698737 0.8493865059219373 -3.2315951236967395 Q 0.848396238476864 -3.2583443175236053 0.8708465118766094 -3.29618589814964 L 0.9045219219762277 -3.352948269088692 Q 0.9285028958350467 -3.3933699574846834 0.967205771573875 -3.404709596347752 Q 1.0059086473127032 -3.4160492352108207 1.0673656700020375 -3.4040062139054057 Q 1.1006598189475776 -3.399369442831459 1.1212428004308974 -3.3987855993102074 Q 1.1418257819142175 -3.3982017557889557 1.156104454852958 -3.4065904087862178 Q 1.1703831277916987 -3.4149790617834803 1.183138964950645 -3.436479959866454 L 1.1969152690823068 -3.4597009297960666 Q 1.2050790048640325 -3.47346150456917 1.2051158098814794 -3.4833229773491707 Q 1.2051526148989264 -3.493184450129171 1.1990232075728275 -3.5014718119428467 Q 1.1928938002467286 -3.509759173756522 1.1825733691669011 -3.515881975592816 Q 1.160212435160608 -3.52914804623812 1.1444030617627938 -3.518179285470901 Q 1.1285936883649796 -3.507210524703682 1.1076741154243077 -3.4719490518476044 L 1.086244308997278 -3.4358275430682075 L 0.9976606088954241 -3.4883815921630665 L 1.0247029836723902 -3.5339634960989716 Q 1.0435816226676309 -3.5657848252617734 1.0671536542236786 -3.5849383974696067 Q 1.0907256857797267 -3.60409196967744 1.1258056519275192 -3.6024653243351095 Q 1.1608856180753118 -3.6008386789927793 1.2142078453210878 -3.569204202838592 Q 1.268390108490183 -3.5370594931980475 1.2917636447899126 -3.5098211415437124 Q 1.3151371810896424 -3.4825827898893773 1.3138169276770215 -3.4548788744454106 Q 1.3124966742644009 -3.4271749590014435 1.2910668678373711 -3.391053450222047 L 1.091565574671451 -3.05477940420433 L 0.9935214794130884 -3.112946021649125 L 1.0215843211627702 -3.1602479974316684 Q 0.9999072626718408 -3.1393888235462812 0.9667222695891666 -3.1393098672110575 Q 0.9335372765064925 -3.139230910875834 0.9042960551136476 -3.156578849412001 M 0.9847053268331161 -3.196080102829389 Q 1.007926296762728 -3.1823037986977267 1.0274164604279132 -3.1945770835190084 Q 1.0469066240930984 -3.2068503683402896 1.065785263088339 -3.2386716975030914 L 1.1305849158557861 -3.3478962597646005 Q 1.1203223654522938 -3.342357301449558 1.1044551113781444 -3.3430503008336756 Q 1.0885878573039949 -3.343743300217793 1.0719552530003087 -3.3431462457169325 Q 1.0489815351345961 -3.341660214954585 1.0334930238355755 -3.3351520648533577 Q 1.0180045125365549 -3.32864391475213 1.0057589088639665 -3.3080030525924746 L 0.979737001059716 -3.264141220503207 Q 0.969022097846201 -3.2460804661135088 0.9669443588833228 -3.2327788496402325 Q 0.9648666199204444 -3.2194772331669563 0.9700557757985259 -3.2105849521731407 Q 0.9752449316766073 -3.201692671179325 0.9847053268331161 -3.196080102829389 M 1.1778021997213548 -2.825536686586178 Q 1.167406042203266 -2.834913248261925 1.1532241430114063 -2.849050919049998 Q 1.1390422438195467 -2.863188589838071 1.1259013903730293 -2.8777339661033023 Q 1.1127605369265121 -2.892279342368534 1.1037403023564705 -2.9024349008613703 Q 1.0947200677864288 -2.912590459354207 1.0931620741522488 -2.915342305250302 L 1.134017092882288 -2.9606398487219754 Q 1.1423311589096925 -2.9504478760919124 1.1599639225726173 -2.9311778048515813 Q 1.1775966862355423 -2.91190773361125 1.1909631744730853 -2.8998521543138613 Q 1.2028444973509012 -2.8891360838272937 1.2152863322224483 -2.8812811016485007 Q 1.2277281670939952 -2.8734261194697077 1.2412910259530041 -2.8712933139064636 Q 1.2548538848120128 -2.869160508343219 1.2697634024495092 -2.8752396763633667 Q 1.2846729200870057 -2.881318844383514 1.3007470258168572 -2.8991408287002383 L 1.3482995886010007 -2.9518641989705467 Q 1.3365496223367577 -2.9463019788392373 1.3197836479996026 -2.941897196832616 Q 1.3030176736624473 -2.9374924148259947 1.2829536413707996 -2.942122167324748 Q 1.2628896090791517 -2.9467519198235017 1.238384380643656 -2.9688538152020474 Q 1.220562396326932 -2.9849279209318986 1.2097656832993515 -3.0020723365766524 Q 1.1989689702717707 -3.0192167522214057 1.199325297377476 -3.0397684682323316 Q 1.199681624483181 -3.0603201842432575 1.2134987180038819 -3.0875844085425146 Q 1.227315811524583 -3.1148486328417717 1.2594640229842857 -3.1504926014752197 L 1.3947544128772018 -3.300494302807647 Q 1.4369489404180618 -3.3472770116390476 1.4777246452048747 -3.3529198743113704 Q 1.5185003499916874 -3.3585627369836932 1.5585998147043165 -3.3223959990915275 Q 1.5823624604599487 -3.300963858118392 1.591484787474003 -3.28196298577398 Q 1.6006071144880574 -3.262962113429568 1.5998066677679676 -3.2441576117066213 Q 1.599006221047878 -3.2253531099836747 1.5914789661041233 -3.206555758228395 L 1.5790007170953497 -3.215116908949825 L 1.629130869356016 -3.245315714130203 L 1.7048743027020932 -3.1770007647783345 L 1.422907698024283 -2.8643734565558 Q 1.3987965394295059 -2.837640480080714 1.3708632250237316 -2.816374781260591 Q 1.3429299106179575 -2.7951090824404687 1.3126303415913534 -2.78540412923079 Q 1.2823307725647493 -2.775699176021111 1.2486310531396396 -2.7838740711683827 Q 1.21493133371453 -2.7920489663156545 1.1778021997213548 -2.825536686586178 M 1.3203142315248801 -2.9865314715676523 Q 1.3329381370825597 -2.9751456466756743 1.345685584987252 -2.975094932603114 Q 1.3584330328919443 -2.9750442185305546 1.3714132655553288 -2.9842101096495024 Q 1.3843934982187136 -2.99337600076845 1.3957793231106916 -3.0059999063261293 L 1.5598691524362582 -3.1879326628926874 Q 1.5617327591035834 -3.192985085102826 1.5613686177313184 -3.200046770529196 Q 1.5610044763590532 -3.2071084559555656 1.5573715412018554 -3.215771699121009 Q 1.5537386060446576 -3.224434942286452 1.542599865846705 -3.234481258367609 Q 1.5277482122494348 -3.2478763464758185 1.5126202097885795 -3.246034189711493 Q 1.497492207327724 -3.2441920329471676 1.4767298207599993 -3.2211719698713988 L 1.3240258163264107 -3.0518631188625203 Q 1.3126399914344327 -3.0392392133048407 1.3085779008970766 -3.028763077544632 Q 1.3045158103597208 -3.0182869417844236 1.3059938257517811 -3.010220624749938 Q 1.3074718411438415 -3.002154307715452 1.3116652882947704 -2.9963521528577837 Q 1.315858735445699 -2.990549998000115 1.3203142315248801 -2.9865314715676523 M 1.5048097220348162 -2.6298276534735554 Q 1.4737742550748756 -2.6715505463571803 1.461813758749564 -2.7068980572688726 Q 1.4498532624242524 -2.742245568180565 1.466791750870524 -2.777278946681011 Q 1.4837302393167955 -2.8123123251814572 1.539895672044752 -2.8540908383967616 L 1.7188226934495279 -2.987185244782661 Q 1.7773952161515396 -3.030754265707193 1.8223356261379926 -3.0155766654275205 Q 1.8672760361244456 -3.0003990651478483 1.9144260724674322 -2.937012362497726 Q 1.9609792729073434 -2.8744280231722885 1.9625920633608014 -2.827021284126524 Q 1.9642048538142594 -2.7796145450807592 1.9056323311122476 -2.736045524156227 L 1.79731328227976 -2.6554726772409962 L 1.6785429375676795 -2.8151429788533298 L 1.5702238887351918 -2.7345701319380993 Q 1.546152988994639 -2.716665054845826 1.5421945701776378 -2.7018805724244084 Q 1.5382361513606366 -2.6870960900029903 1.5531570489375313 -2.667037006885863 Q 1.5668842747082743 -2.648582650418106 1.5811845581182968 -2.6486261750436544 Q 1.5954848415283196 -2.6486696996692025 1.6203581045935576 -2.6671716126645517 L 1.6837448072436798 -2.7143216490075384 L 1.7523809360973948 -2.622049866668753 L 1.7275076730321568 -2.603547953673403 Q 1.6713422403042004 -2.561769440458099 1.632516477684858 -2.555322723694778 Q 1.5936907150655157 -2.548876006931457 1.5638726981755227 -2.5696939287477214 Q 1.5340546812855296 -2.5905118505639857 1.5048097220348162 -2.6298276534735554 M 1.720265830451304 -2.8461784458132704 L 1.7704000463096699 -2.778779926539723 L 1.8418103822066432 -2.8318983219134672 Q 1.865078918622511 -2.849206563102665 1.8696341733425879 -2.863188682199398 Q 1.8741894280626648 -2.8771708012961303 1.859865366388846 -2.896427521088573 Q 1.8455413047150273 -2.915684240881015 1.8302430037395863 -2.9161446616286137 Q 1.8149447027641452 -2.916605082376213 1.7916761663482776 -2.8992968411870153 L 1.720265830451304 -2.8461784458132704 M 1.6441457350146085 -2.4618339253204935 L 2.1021667090907776 -2.6495618862275387 L 2.1389538044604413 -2.5598082812065517 L 2.0881538895888787 -2.52817967628882 Q 2.119705220561314 -2.530304179493769 2.1469566579564185 -2.513914879328701 Q 2.1742080953515233 -2.4975255791636335 2.1871025411511993 -2.466065552661432 Q 2.208340451880077 -2.4142490384225117 2.195235336090059 -2.382939999150598 Q 2.182130220300041 -2.351630959878685 2.140704400249975 -2.3314096485171647 L 2.136153419379501 -2.3425131872826475 Q 2.175440705699681 -2.3521313541348188 2.211042623286456 -2.336462803973925 Q 2.246644540873232 -2.320794253813031 2.2618144771081443 -2.283782457928088 Q 2.286086375084005 -2.224563584512179 2.2659353224053125 -2.1919877487448414 Q 2.24578426972662 -2.1594119129775033 2.187490691207835 -2.1355192634075157 L 1.8368039251980002 -1.9917841175817177 L 1.7935696069284988 -2.0972677358538054 L 2.136854013761345 -2.237968894432621 Q 2.163687565777929 -2.2489670982029324 2.1709152214419944 -2.261656108944582 Q 2.17814287710606 -2.274345119686232 2.170557908988604 -2.292851017628703 Q 2.164110686088766 -2.308581030879804 2.1510424269412436 -2.316733981440993 Q 2.137974167793721 -2.3248869320021823 2.1238822940163726 -2.322353339011334 L 1.762091989241055 -2.174067212315062 L 1.7188576709715537 -2.2795508305871492 L 2.0649179624957705 -2.4213897343835833 Q 2.0889756298209834 -2.4312501929362766 2.096203285485049 -2.4439392036779264 Q 2.103430941149115 -2.4566282144195757 2.0954667246257856 -2.476059407259171 Q 2.089019501725948 -2.4917894205102717 2.0780976817358567 -2.498660653886023 Q 2.067175861745765 -2.5055318872617747 2.0547221274421688 -2.506911924179915 L 1.6873800532841097 -2.356350307048406 L 1.6441457350146085 -2.4618339253204935 M 1.8545488644204238 -1.770009972786533 Q 1.8473741964402766 -1.8215126342650882 1.8538661174731257 -1.858259810500865 Q 1.860358038505975 -1.8950069867366421 1.892044534609196 -1.9175949473506626 Q 1.9237310307124174 -1.9401829079646833 1.993061536548934 -1.9498411148610353 L 2.2139287194281225 -1.9806094025451282 Q 2.2862305326576324 -1.9906815325941811 2.318353300179685 -1.9557798448595718 Q 2.3504760677017376 -1.9208781571249627 2.361376044056192 -1.8426337291094654 Q 2.372138046026413 -1.7653797368916329 2.3507772804745812 -1.7230274324084092 Q 2.3294165149227495 -1.6806751279251855 2.2571147016932396 -1.6706029978761328 L 2.123405869008529 -1.6519764560045966 L 2.0959489665460422 -1.8490731797398365 L 1.9622401338613318 -1.8304466378683006 Q 1.9325270599313962 -1.8263074063412925 1.9219525870096412 -1.8152425736526763 Q 1.911378114087886 -1.8041777409640603 1.914827473693726 -1.779416846022447 Q 1.918000884531099 -1.756636822676163 1.9305636784702265 -1.749804823814701 Q 1.9431264724093542 -1.742972824953239 1.9738299821369543 -1.7472500308644807 L 2.0520744101524517 -1.758150007218935 L 2.0679414643393157 -1.6442498904875151 L 2.0372379546117156 -1.6399726845762734 Q 1.9679074487751989 -1.6303144776799214 1.9307586569407358 -1.6433132185897068 Q 1.8936098651062727 -1.6563119594994922 1.8774597371770714 -1.6888952891002318 Q 1.8613096092478703 -1.7214786187009714 1.8545488644204238 -1.770009972786533 M 2.1474516280245974 -1.8562478477199837 L 2.15904147630022 -1.773051240716164 L 2.2471902622923623 -1.7853309609129544 Q 2.2759129004246335 -1.789332218055729 2.2866253477306224 -1.7994066149466805 Q 2.297337795036611 -1.809481011837632 2.2940264098150047 -1.8332514709815806 Q 2.290715024593398 -1.857021930125529 2.2775190383712047 -1.8647753775925389 Q 2.2643230521490114 -1.8725288250595487 2.23560041401674 -1.8685275679167743 L 2.1474516280245974 -1.8562478477199837 M 1.8855955285949058 -1.556658095370011 L 2.379696411775158 -1.526836672860436 L 2.3738526178692414 -1.430012863429154 L 2.315355515950958 -1.4235252546892607 Q 2.3447588163404958 -1.4127342433278274 2.3621278043888214 -1.3851377172026584 Q 2.3794967924371466 -1.3575411910774895 2.377568942901174 -1.3255993158011905 Q 2.3746771685972154 -1.2776865028867417 2.356761252005894 -1.254724143846503 Q 2.338845335414573 -1.2317617848062645 2.308886834111242 -1.2250544604769724 Q 2.278928332807911 -1.21834713614768 2.239000988712537 -1.220756948067646 L 1.8666785050231751 -1.2432284442213257 L 1.8735464689950774 -1.3570213748931415 L 2.2388816674677487 -1.3349715958254555 Q 2.250859870696361 -1.3342486522494659 2.261401043819396 -1.334614260222859 Q 2.2719422169424304 -1.3349798681962524 2.2801987896025016 -1.3389897320229889 Q 2.2884553622625723 -1.3429995958497254 2.2934291508572953 -1.350713960827804 Q 2.298402939452018 -1.3584283258058827 2.299366864220004 -1.3743992634440323 Q 2.300089807795994 -1.3863774666726445 2.2961401892672564 -1.3956322229350997 Q 2.2921905707385193 -1.404886979197555 2.286502695614209 -1.4102393689974715 Q 2.2808148204898986 -1.415591758797388 2.2760046383719743 -1.418887536094537 L 1.8787275646230035 -1.4428651646981954 L 1.8855955285949058 -1.556658095370011 M 1.814440727122392 -1.034910060836276 Q 1.8198026686823712 -1.0572763207540041 1.8290543945758684 -1.0787100690960836 Q 1.8383061204693654 -1.100143817438163 1.853685552518648 -1.114966876159004 Q 1.8690649845679304 -1.129789934879845 1.8925369821936229 -1.1354745920779084 Q 1.9160089798193152 -1.1411592492759717 1.9510170388209764 -1.1327666450951346 L 2.2631722315857896 -1.057932591149338 L 2.27412924259966 -1.1036375570681736 L 2.3295586693522905 -1.0903492671151815 L 2.3259948402330934 -1.0325885614234298 L 2.4107573875180317 -0.9958147857433535 L 2.3902421328537633 -0.9102395304059593 L 2.301749539266231 -0.931454168751964 L 2.2798355172384897 -0.8400442369142929 L 2.2146816296520644 -0.8556638058064061 L 2.2365956516798056 -0.9470737376440772 L 1.943889380582582 -1.0172452337116311 Q 1.923468012831613 -1.022140919483786 1.9055576293045546 -1.0182079610663006 Q 1.887647245777496 -1.014275002648815 1.8811196647479562 -0.9870465123141896 Q 1.8780890021270984 -0.9744047132302562 1.8755844970556612 -0.957523437971937 Q 1.873079991984224 -0.9406421627136176 1.8723806083024876 -0.937724824463479 L 1.8052818285493035 -0.9538106491434166 Q 1.80598121223104 -0.9567279873935551 1.80683061521499 -0.9817185559059132 Q 1.8076800181989399 -1.006709124418271 1.814440727122392 -1.034910060836276" fill="#102036" fill-rule="nonzero"></path></g><g transform="matrix(1,0,0,1,0,0)"><path d=" M -0.9763665771484377 0.3425 Q -1.0086165771484377 0.31750000000000006 -1.0086165771484377 0.26450000000000007 L -1.0081165771484377 0.25450000000000006 L -0.9626165771484376 0.25450000000000006 L -0.9631165771484376 0.265 Q -0.9631165771484376 0.29550000000000004 -0.9443665771484376 0.31125 Q -0.9256165771484376 0.32700000000000007 -0.8951165771484376 0.32700000000000007 Q -0.8606165771484376 0.32700000000000007 -0.8418665771484376 0.31225 Q -0.8231165771484377 0.29750000000000004 -0.8231165771484377 0.27 Q -0.8231165771484377 0.25150000000000006 -0.8333665771484376 0.23975000000000005 Q -0.8436165771484376 0.22800000000000004 -0.8588665771484376 0.22100000000000003 Q -0.8741165771484376 0.21400000000000005 -0.9006165771484376 0.20550000000000004 Q -0.9331165771484377 0.19450000000000003 -0.9531165771484377 0.18450000000000005 Q -0.9731165771484376 0.17450000000000004 -0.9873665771484377 0.15525000000000003 Q -1.0016165771484375 0.13600000000000004 -1.0016165771484375 0.10450000000000004 Q -1.0016165771484375 0.05950000000000005 -0.9711165771484376 0.03600000000000003 Q -0.9406165771484376 0.012500000000000011 -0.8926165771484376 0.012500000000000011 Q -0.8446165771484376 0.012500000000000011 -0.8148665771484376 0.03625000000000006 Q -0.7851165771484376 0.06000000000000005 -0.7851165771484376 0.10900000000000004 L -0.7851165771484376 0.11500000000000005 L -0.8306165771484376 0.11500000000000005 L -0.8306165771484376 0.10750000000000004 Q -0.8306165771484376 0.08200000000000002 -0.8478665771484376 0.06750000000000006 Q -0.8651165771484376 0.05300000000000005 -0.8916165771484377 0.05300000000000005 Q -0.9201165771484376 0.05300000000000005 -0.9376165771484376 0.06525000000000003 Q -0.9551165771484377 0.07750000000000001 -0.9551165771484377 0.10100000000000003 Q -0.9551165771484377 0.11850000000000005 -0.9451165771484377 0.12975000000000003 Q -0.9351165771484377 0.14100000000000004 -0.9201165771484376 0.14775000000000005 Q -0.9051165771484376 0.15450000000000003 -0.8791165771484376 0.16300000000000003 Q -0.8461165771484376 0.17400000000000004 -0.8258665771484376 0.18375000000000005 Q -0.8056165771484376 0.19350000000000003 -0.7913665771484376 0.21275000000000005 Q -0.7771165771484376 0.23200000000000004 -0.7771165771484376 0.26250000000000007 Q -0.7771165771484376 0.31750000000000006 -0.8083665771484376 0.3425 Q -0.8396165771484376 0.36750000000000005 -0.8931165771484376 0.36750000000000005 Q -0.9441165771484377 0.36750000000000005 -0.9763665771484377 0.3425 M -0.7298680419921876 5.551115123125783e-17 L -0.6888680419921875 5.551115123125783e-17 L -0.6888680419921875 0.049000000000000044 L -0.7298680419921876 0.049000000000000044 L -0.7298680419921876 5.551115123125783e-17 M -0.7298680419921876 0.09850000000000003 L -0.6888680419921875 0.09850000000000003 L -0.6888680419921875 0.36150000000000004 L -0.7298680419921876 0.36150000000000004 L -0.7298680419921876 0.09850000000000003 M -0.6331146240234375 0.09850000000000003 L -0.6021146240234376 0.09850000000000003 L -0.5966146240234376 0.12900000000000003 L -0.5936146240234376 0.12900000000000003 Q -0.5731146240234376 0.09250000000000003 -0.5301146240234376 0.09250000000000003 Q -0.4986146240234376 0.09250000000000003 -0.48186462402343755 0.11125000000000002 Q -0.46511462402343756 0.13000000000000003 -0.46511462402343756 0.17200000000000004 L -0.46511462402343756 0.36150000000000004 L -0.5061146240234375 0.36150000000000004 L -0.5061146240234375 0.17500000000000004 Q -0.5061146240234375 0.14950000000000005 -0.5156146240234376 0.13925000000000004 Q -0.5251146240234376 0.12900000000000003 -0.5431146240234376 0.12900000000000003 Q -0.5636146240234375 0.12900000000000003 -0.5778646240234375 0.14850000000000005 Q -0.5921146240234376 0.16800000000000004 -0.5921146240234376 0.20100000000000004 L -0.5921146240234376 0.36150000000000004 L -0.6331146240234375 0.36150000000000004 L -0.6331146240234375 0.09850000000000003 M -0.39461779785156254 0.33425000000000005 Q -0.4163677978515625 0.30100000000000005 -0.4163677978515625 0.23000000000000004 Q -0.4163677978515625 0.15900000000000003 -0.39436779785156256 0.12575000000000003 Q -0.37236779785156254 0.09250000000000003 -0.32636779785156256 0.09250000000000003 Q -0.2843677978515625 0.09250000000000003 -0.26511779785156253 0.11850000000000005 Q -0.24586779785156254 0.14450000000000005 -0.24586779785156254 0.19600000000000004 L -0.2883677978515625 0.19600000000000004 Q -0.2883677978515625 0.16050000000000003 -0.2966177978515625 0.14475000000000005 Q -0.30486779785156254 0.12900000000000003 -0.32636779785156256 0.12900000000000003 Q -0.3503677978515625 0.12900000000000003 -0.36186779785156253 0.15175000000000005 Q -0.37336779785156254 0.17450000000000004 -0.37336779785156254 0.22050000000000003 L -0.37336779785156254 0.23950000000000005 Q -0.37336779785156254 0.28550000000000003 -0.36211779785156256 0.30825 Q -0.3508677978515625 0.33100000000000007 -0.32636779785156256 0.33100000000000007 Q -0.30486779785156254 0.33100000000000007 -0.2956177978515625 0.31450000000000006 Q -0.2863677978515625 0.29800000000000004 -0.2863677978515625 0.264 L -0.24586779785156254 0.264 Q -0.24586779785156254 0.30900000000000005 -0.26561779785156253 0.33825000000000005 Q -0.2853677978515625 0.36750000000000005 -0.32636779785156256 0.36750000000000005 Q -0.37286779785156254 0.36750000000000005 -0.39461779785156254 0.33425000000000005 M -0.18288122558593756 0.33475000000000005 Q -0.20763122558593755 0.30200000000000005 -0.20763122558593755 0.23000000000000004 Q -0.20763122558593755 0.15950000000000003 -0.18313122558593753 0.12600000000000003 Q -0.15863122558593754 0.09250000000000003 -0.10863122558593755 0.09250000000000003 Q -0.06463122558593754 0.09250000000000003 -0.043381225585937544 0.12175000000000002 Q -0.022131225585937525 0.15100000000000005 -0.022131225585937525 0.21600000000000005 L -0.022131225585937525 0.24200000000000005 L -0.16463122558593754 0.24200000000000005 Q -0.16413122558593754 0.28800000000000003 -0.15038122558593753 0.30950000000000005 Q -0.13663122558593754 0.33100000000000007 -0.10713122558593755 0.33100000000000007 Q -0.08713122558593753 0.33100000000000007 -0.07488122558593754 0.31500000000000006 Q -0.06263122558593753 0.29900000000000004 -0.06263122558593753 0.272 L -0.022131225585937525 0.272 Q -0.022131225585937525 0.31600000000000006 -0.045881225585937546 0.34175000000000005 Q -0.06963122558593754 0.36750000000000005 -0.10813122558593755 0.36750000000000005 Q -0.15813122558593753 0.36750000000000005 -0.18288122558593756 0.33475000000000005 M -0.06513122558593754 0.20550000000000004 Q -0.06513122558593754 0.16800000000000004 -0.07613122558593755 0.14850000000000005 Q -0.08713122558593753 0.12900000000000003 -0.10863122558593755 0.12900000000000003 Q -0.13513122558593754 0.12900000000000003 -0.14838122558593753 0.14775000000000005 Q -0.16163122558593754 0.16650000000000004 -0.16413122558593754 0.20550000000000004 L -0.06513122558593754 0.20550000000000004 M 0.13437927246093748 0.35500000000000004 Q 0.13437927246093748 0.31550000000000006 0.1583792724609375 0.2805 Q 0.16687927246093748 0.26750000000000007 0.1776292724609375 0.25525000000000003 Q 0.1883792724609375 0.24300000000000005 0.20537927246093748 0.22500000000000003 Q 0.22887927246093748 0.19950000000000004 0.2428792724609375 0.18200000000000005 Q 0.2568792724609375 0.16450000000000004 0.2663792724609375 0.14375000000000004 Q 0.27587927246093746 0.12300000000000003 0.27587927246093746 0.10100000000000003 Q 0.27587927246093746 0.08050000000000002 0.2651292724609375 0.06550000000000006 Q 0.2543792724609375 0.050500000000000045 0.22937927246093748 0.050500000000000045 Q 0.20437927246093748 0.050500000000000045 0.1928792724609375 0.06875000000000003 Q 0.1813792724609375 0.08700000000000002 0.1813792724609375 0.11600000000000005 L 0.1813792724609375 0.13650000000000004 L 0.13887927246093748 0.13650000000000004 Q 0.13837927246093748 0.13500000000000004 0.13787927246093748 0.12950000000000003 Q 0.13737927246093748 0.12400000000000003 0.13737927246093748 0.11650000000000005 Q 0.13737927246093748 0.06450000000000006 0.1636292724609375 0.038500000000000034 Q 0.1898792724609375 0.012500000000000011 0.22987927246093748 0.012500000000000011 Q 0.26987927246093746 0.012500000000000011 0.2946292724609375 0.03450000000000003 Q 0.3193792724609375 0.05650000000000005 0.3193792724609375 0.10150000000000003 Q 0.3193792724609375 0.12900000000000003 0.30812927246093746 0.15400000000000003 Q 0.2968792724609375 0.17900000000000005 0.2811292724609375 0.19900000000000004 Q 0.2653792724609375 0.21900000000000003 0.2393792724609375 0.24700000000000005 Q 0.23587927246093748 0.25100000000000006 0.2201292724609375 0.26850000000000007 Q 0.20437927246093748 0.28600000000000003 0.1938792724609375 0.30200000000000005 Q 0.1878792724609375 0.31050000000000005 0.1848792724609375 0.31950000000000006 L 0.3208792724609375 0.31950000000000006 L 0.3208792724609375 0.36150000000000004 L 0.13437927246093748 0.36150000000000004 L 0.13437927246093748 0.35500000000000004 M 0.4061260986328125 0.35175000000000006 Q 0.3856260986328125 0.336 0.3746260986328125 0.29700000000000004 Q 0.36362609863281253 0.258 0.36362609863281253 0.19000000000000003 Q 0.36362609863281253 0.12200000000000003 0.3746260986328125 0.08300000000000002 Q 0.3856260986328125 0.04400000000000004 0.4061260986328125 0.028250000000000053 Q 0.42662609863281253 0.012500000000000011 0.4576260986328125 0.012500000000000011 Q 0.4886260986328125 0.012500000000000011 0.5091260986328126 0.028500000000000025 Q 0.5296260986328125 0.04450000000000004 0.5406260986328125 0.08325000000000005 Q 0.5516260986328125 0.12200000000000003 0.5516260986328125 0.19000000000000003 Q 0.5516260986328125 0.258 0.5406260986328125 0.29675000000000007 Q 0.5296260986328125 0.3355 0.5091260986328126 0.35150000000000003 Q 0.4886260986328125 0.36750000000000005 0.4576260986328125 0.36750000000000005 Q 0.42662609863281253 0.36750000000000005 0.4061260986328125 0.35175000000000006 M 0.49812609863281254 0.29875000000000007 Q 0.5096260986328125 0.26650000000000007 0.5096260986328125 0.20750000000000005 L 0.5096260986328125 0.17250000000000004 Q 0.5096260986328125 0.11350000000000005 0.49812609863281254 0.08125000000000004 Q 0.48662609863281253 0.049000000000000044 0.4576260986328125 0.049000000000000044 Q 0.42862609863281254 0.049000000000000044 0.4171260986328125 0.08125000000000004 Q 0.4056260986328125 0.11350000000000005 0.4056260986328125 0.17250000000000004 L 0.4056260986328125 0.20750000000000005 Q 0.4056260986328125 0.26650000000000007 0.4171260986328125 0.29875000000000007 Q 0.42862609863281254 0.33100000000000007 0.4576260986328125 0.33100000000000007 Q 0.48662609863281253 0.33100000000000007 0.49812609863281254 0.29875000000000007 M 0.5918729248046876 0.35500000000000004 Q 0.5918729248046876 0.31550000000000006 0.6158729248046876 0.2805 Q 0.6243729248046876 0.26750000000000007 0.6351229248046876 0.25525000000000003 Q 0.6458729248046876 0.24300000000000005 0.6628729248046876 0.22500000000000003 Q 0.6863729248046876 0.19950000000000004 0.7003729248046876 0.18200000000000005 Q 0.7143729248046876 0.16450000000000004 0.7238729248046876 0.14375000000000004 Q 0.7333729248046876 0.12300000000000003 0.7333729248046876 0.10100000000000003 Q 0.7333729248046876 0.08050000000000002 0.7226229248046876 0.06550000000000006 Q 0.7118729248046876 0.050500000000000045 0.6868729248046876 0.050500000000000045 Q 0.6618729248046876 0.050500000000000045 0.6503729248046876 0.06875000000000003 Q 0.6388729248046876 0.08700000000000002 0.6388729248046876 0.11600000000000005 L 0.6388729248046876 0.13650000000000004 L 0.5963729248046876 0.13650000000000004 Q 0.5958729248046876 0.13500000000000004 0.5953729248046876 0.12950000000000003 Q 0.5948729248046876 0.12400000000000003 0.5948729248046876 0.11650000000000005 Q 0.5948729248046876 0.06450000000000006 0.6211229248046876 0.038500000000000034 Q 0.6473729248046876 0.012500000000000011 0.6873729248046876 0.012500000000000011 Q 0.7273729248046876 0.012500000000000011 0.7521229248046876 0.03450000000000003 Q 0.7768729248046876 0.05650000000000005 0.7768729248046876 0.10150000000000003 Q 0.7768729248046876 0.12900000000000003 0.7656229248046876 0.15400000000000003 Q 0.7543729248046875 0.17900000000000005 0.7386229248046876 0.19900000000000004 Q 0.7228729248046876 0.21900000000000003 0.6968729248046877 0.24700000000000005 Q 0.6933729248046876 0.25100000000000006 0.6776229248046876 0.26850000000000007 Q 0.6618729248046876 0.28600000000000003 0.6513729248046876 0.30200000000000005 Q 0.6453729248046876 0.31050000000000005 0.6423729248046877 0.31950000000000006 L 0.7783729248046876 0.31950000000000006 L 0.7783729248046876 0.36150000000000004 L 0.5918729248046876 0.36150000000000004 L 0.5918729248046876 0.35500000000000004 M 0.8471197509765627 0.33725000000000005 Q 0.8211197509765626 0.30700000000000005 0.8211197509765626 0.25500000000000006 L 0.8636197509765626 0.25500000000000006 Q 0.8636197509765626 0.28950000000000004 0.8788697509765626 0.31050000000000005 Q 0.8941197509765626 0.3315 0.9171197509765626 0.3315 Q 0.9411197509765626 0.3315 0.9556197509765626 0.31050000000000005 Q 0.9701197509765627 0.28950000000000004 0.9701197509765627 0.24950000000000006 Q 0.9701197509765627 0.21450000000000005 0.9566197509765626 0.19500000000000003 Q 0.9431197509765626 0.17550000000000004 0.9206197509765627 0.17550000000000004 Q 0.9046197509765627 0.17550000000000004 0.8908697509765626 0.18625000000000003 Q 0.8771197509765626 0.19700000000000004 0.8696197509765626 0.21500000000000005 L 0.8306197509765626 0.20850000000000005 L 0.8421197509765627 0.018500000000000016 L 0.9981197509765627 0.018500000000000016 L 0.9981197509765627 0.060500000000000054 L 0.8776197509765626 0.060500000000000054 L 0.8711197509765627 0.16500000000000004 Q 0.8976197509765627 0.13850000000000004 0.9316197509765627 0.13850000000000004 Q 0.9671197509765627 0.13850000000000004 0.9898697509765626 0.16700000000000004 Q 1.0126197509765626 0.19550000000000003 1.0126197509765626 0.24950000000000006 Q 1.0126197509765626 0.30550000000000005 0.9871197509765626 0.3365 Q 0.9616197509765626 0.36750000000000005 0.9171197509765626 0.36750000000000005 Q 0.8731197509765627 0.36750000000000005 0.8471197509765627 0.33725000000000005" fill="#3682ae" fill-rule="nonzero"></path></g><g transform="matrix(1,0,0,1,0,0)"><g transform="matrix(1,0,0,1,0,0)" clip-path="url(#SvgjsClipPath7750)"><g clip-path="url(#SvgjsClipPath77455b2da164-3b6c-4d04-b565-d62f4870cb2d)"><path d=" M 0 -2.8458860896345546 L -1.3291930448172773 -0.1875 L 1.3291930448172773 -0.1875 Z M 0 -2.625714755996607 L -1.1698797641598921 -0.28595522767682224 L 1.169879764159892 -0.28595522767682224 Z" fill="url(#gradient-b7a6fc94-d3e9-47e1-8967-a47bb65dee7d_0)" transform="matrix(1,0,0,1,0,0)" fill-rule="evenodd"></path></g><g clip-path="url(#SvgjsClipPath77455b2da164-3b6c-4d04-b565-d62f4870cb2d)"><path d=" M 0 -0.9552988681026657 L -1.0040154606387648 -0.28595522767682224 L 1.0040154606387646 -0.28595522767682224 Z M 0 -1.0736207846814894 L -1.3291930448172773 -0.1875 L 1.3291930448172773 -0.1875 Z" fill="url(#gradient-b7a6fc94-d3e9-47e1-8967-a47bb65dee7d_1)" transform="matrix(1,0,0,1,0,0)" fill-rule="evenodd"></path></g><g clip-path="url(#SvgjsClipPath77455b2da164-3b6c-4d04-b565-d62f4870cb2d)"><path d=" M -0.04922761383841112 -2.6488806919205654 L 0.049227613838411344 -2.6488806919205654 L 0.049227613838411344 -0.9751655570046669 L -0.04922761383841112 -0.9751655570046669 Z" fill="url(#gradient-b7a6fc94-d3e9-47e1-8967-a47bb65dee7d_2)" transform="matrix(1,0,0,1,0,0)" fill-rule="nonzero"></path></g></g></g></g><defs><clipPath id="SvgjsClipPath7750"><path d=" M -1.3291930448172773 -2.8458860896345546 h 2.6583860896345546 v 2.6583860896345546 h -2.6583860896345546 Z"></path></clipPath><clipPath id="SvgjsClipPath77455b2da164-3b6c-4d04-b565-d62f4870cb2d"><path d=" M -1.3291930448172773 -2.8458860896345546 L 1.3291930448172773 -2.8458860896345546 L 1.3291930448172773 -0.1875 L -1.3291930448172773 -0.1875 Z"></path></clipPath><linearGradient id="gradient-b7a6fc94-d3e9-47e1-8967-a47bb65dee7d_0" x1="0" x2="1" y1="0" y2="1"><stop stop-color="#3682ae" offset="0"></stop><stop stop-color="#102036" offset="1"></stop></linearGradient><linearGradient id="gradient-b7a6fc94-d3e9-47e1-8967-a47bb65dee7d_1" x1="0" x2="1" y1="0" y2="1"><stop stop-color="#296186" offset="0"></stop><stop stop-color="#102036" offset="1"></stop></linearGradient><linearGradient id="gradient-b7a6fc94-d3e9-47e1-8967-a47bb65dee7d_2" x1="0" x2="1" y1="0" y2="1"><stop stop-color="#2b668d" offset="0"></stop><stop stop-color="#1f4664" offset="1"></stop></linearGradient></defs></svg>